<?xml version="1.0" standalone="no"?>
<!DOCTYPE svg PUBLIC "-//W3C//DTD SVG 20010904//EN"
 "http://www.w3.org/TR/2001/REC-SVG-20010904/DTD/svg10.dtd">
<svg version="1.0" xmlns="http://www.w3.org/2000/svg"
 width="3840.000000pt" height="2160.000000pt" viewBox="0 0 3840.000000 2160.000000"
 preserveAspectRatio="xMidYMid meet">

<g transform="translate(0.000000,2160.000000) scale(0.100000,-0.100000)"
fill="#000000" stroke="none">
<path d="M28680 14109 c-727 -31 -1384 -304 -1869 -774 -519 -504 -821 -1174
-917 -2040 -29 -260 -26 -923 5 -933 5 -2 9 -9 7 -15 -1 -7 -1 -9 1 -4 3 4 9
4 14 1 6 -3 5 -12 -3 -22 -9 -12 -6 -11 10 2 23 20 31 10 10 -14 -11 -12 -10
-12 5 -1 10 8 16 19 14 25 -3 6 0 20 5 31 l9 20 -17 -20 -17 -20 7 20 c6 19 5
19 -8 2 -9 -12 -16 -14 -21 -8 -3 6 -2 11 2 11 11 0 9 41 -2 61 -7 11 -6 12 6
2 11 -9 19 -9 26 -2 6 6 10 5 10 -5 0 -8 -5 -14 -11 -13 -5 1 -11 -7 -13 -18
-3 -16 -2 -17 6 -5 9 13 11 13 11 1 0 -11 4 -10 14 4 8 11 12 26 9 35 -3 11
-2 11 7 -2 6 -10 18 -15 28 -12 13 5 14 4 3 -4 -9 -7 -10 -12 -2 -16 6 -4 11
-4 11 0 0 3 7 1 15 -6 17 -14 21 0 4 17 -9 9 -7 11 7 9 11 -2 22 2 26 8 6 8 8
8 8 -1 0 -6 -4 -15 -10 -18 -5 -3 -10 -12 -10 -18 1 -7 10 -1 20 12 11 13 20
18 20 13 0 -6 -4 -13 -9 -16 -5 -3 -7 -16 -5 -29 4 -20 4 -21 -5 -2 l-10 20
-1 -20 -1 -20 -9 20 -9 20 -1 -20 -1 -20 -9 20 -9 20 -1 -20 -1 -20 -8 20 -8
20 -5 -20 c-5 -16 -6 -17 -7 -2 0 9 -6 17 -12 17 -6 0 -1 -15 10 -33 11 -19
20 -36 18 -38 -1 -3 8 5 19 17 12 13 25 20 28 17 3 -4 -3 -17 -15 -29 -15 -16
-17 -24 -8 -29 7 -5 10 -4 6 2 -4 6 2 18 13 28 22 20 28 8 8 -15 -11 -12 -10
-12 5 -1 9 8 16 19 15 25 -2 6 2 12 7 12 6 0 9 -7 8 -16 -2 -9 0 -10 3 -2 3 6
10 9 15 6 6 -3 5 -12 -3 -22 -11 -14 -9 -14 8 1 11 9 23 14 27 11 3 -3 3 5 0
18 -5 22 -5 23 10 3 10 -13 12 -24 6 -32 -7 -7 -6 -14 1 -18 6 -4 10 -3 9 2
-1 4 0 11 1 16 4 11 7 26 9 40 2 6 6 3 10 -8 5 -11 6 -24 3 -30 -9 -15 -12
-38 -4 -30 4 4 7 12 7 18 0 7 9 12 20 12 11 -1 19 -6 18 -12 -1 -6 5 -17 15
-25 15 -12 16 -11 4 4 -9 11 -10 18 -2 23 6 4 8 16 4 28 -6 19 -5 20 9 8 12
-10 14 -18 7 -31 -7 -13 -6 -21 2 -26 6 -4 8 -3 5 3 -4 6 2 22 13 34 11 13 19
19 20 14 0 -6 -6 -17 -12 -25 -10 -11 -9 -11 6 0 18 14 19 13 13 -2 -3 -10 -2
-20 3 -23 5 -3 7 9 5 27 -4 30 -3 31 10 15 7 -11 12 -28 10 -38 -2 -11 0 -17
5 -14 5 3 6 17 4 32 -4 23 -3 25 10 13 9 -7 13 -16 10 -21 -3 -5 0 -8 7 -7 7
2 13 -2 14 -9 0 -19 12 -25 12 -6 0 35 3 44 12 38 6 -3 8 -14 6 -25 -2 -10 4
-25 13 -32 13 -11 14 -11 7 2 -15 24 -14 38 1 51 13 10 14 8 10 -16 -3 -15 -2
-25 1 -21 4 3 18 -4 32 -16 21 -18 22 -19 9 -3 -12 14 -14 25 -8 35 9 13 14 8
12 -12 -1 -3 6 -12 15 -20 14 -11 16 -11 8 2 -13 21 -15 39 -4 46 5 3 10 0 10
-5 2 -12 5 -26 9 -38 1 -5 2 -12 1 -16 -1 -5 3 -6 8 -3 10 7 9 31 -2 42 -4 4
-7 12 -7 18 1 6 9 0 20 -13 11 -12 18 -27 15 -31 -3 -4 2 -13 9 -19 10 -9 16
-9 21 -1 4 6 3 9 -2 8 -4 -2 -8 1 -8 7 0 5 3 9 7 8 5 -2 7 0 7 5 -3 18 2 33
10 28 4 -3 7 -17 6 -31 -2 -14 2 -28 7 -32 6 -3 8 -1 5 4 -4 6 0 16 9 23 13
12 14 10 10 -14 -3 -14 -1 -24 4 -21 4 3 7 16 5 30 -2 27 10 43 17 22 3 -6 4
-24 3 -40 -1 -15 1 -25 4 -21 3 3 6 11 6 17 0 7 10 11 22 11 16 -1 20 3 15 15
-5 14 -3 14 11 2 9 -7 15 -17 12 -21 -2 -4 5 -7 18 -6 17 1 22 -4 21 -22 -1
-12 1 -20 5 -17 3 4 6 12 6 18 1 7 6 11 13 10 7 -2 9 4 5 15 -6 15 -5 15 10 3
10 -8 15 -16 12 -19 -3 -3 0 -11 7 -19 9 -11 14 -11 29 3 21 19 25 9 7 -16 -7
-9 -1 -4 13 12 19 21 28 25 37 16 19 -19 14 -32 -5 -17 -16 12 -17 12 -6 -2 7
-9 12 -18 10 -20 -1 -3 8 7 20 21 30 33 30 11 1 -26 -13 -15 -17 -24 -10 -20
8 5 23 22 34 40 16 24 19 26 15 8 -3 -14 -1 -20 6 -15 6 4 8 0 4 -10 -3 -9 -2
-19 3 -22 5 -3 6 12 4 32 -4 35 -4 36 9 19 8 -11 13 -32 12 -48 -2 -16 0 -26
4 -23 3 4 6 12 6 18 1 7 7 11 14 9 7 -1 10 2 7 7 -4 5 -2 12 4 16 5 3 11 1 11
-4 1 -6 2 -17 3 -23 1 -7 -2 -20 -8 -28 -6 -8 -1 -6 12 4 15 13 19 23 12 30
-15 15 -12 26 5 20 8 -4 15 -1 15 5 0 6 -5 10 -11 8 -6 -1 -14 4 -16 11 -3 6
0 12 6 12 6 0 11 7 11 15 0 25 -17 17 -25 -12 -5 -21 -8 -24 -16 -12 -7 12 -9
12 -9 0 0 -11 -4 -9 -15 5 -15 19 -15 19 -9 -1 5 -18 5 -18 -6 -2 -6 9 -15 15
-20 12 -5 -3 -11 -1 -15 4 -3 5 -14 8 -25 6 -12 -2 -18 0 -16 4 3 4 -1 8 -9 8
-8 0 -11 -5 -8 -10 3 -6 1 -7 -6 -3 -6 4 -9 12 -6 17 4 5 1 9 -4 9 -6 0 -11
-5 -11 -11 0 -5 -5 -7 -11 -3 -8 4 -7 9 2 15 11 7 11 9 -1 9 -12 0 -12 2 -1 9
9 6 10 11 2 15 -6 4 -13 1 -15 -6 -13 -40 -14 -42 -15 -22 -1 11 9 29 21 40
12 10 18 14 15 7 -4 -6 -3 -14 3 -18 6 -4 8 -11 5 -16 -4 -5 -2 -9 3 -9 17 0
22 13 10 27 -6 7 -8 16 -4 20 3 3 6 1 6 -6 0 -7 4 -10 9 -6 6 3 8 -3 6 -15 -2
-11 0 -22 6 -25 8 -6 13 8 10 27 0 5 5 7 12 5 6 -1 11 5 9 13 -2 8 0 11 4 7
12 -12 13 -37 2 -34 -6 1 -13 -4 -16 -12 -3 -9 0 -11 7 -7 6 4 11 4 10 -1 -4
-25 4 -24 15 2 10 25 13 26 19 12 4 -11 3 -16 -3 -12 -6 3 -10 -1 -10 -9 0 -9
6 -15 13 -13 18 3 27 20 17 32 -6 8 -5 12 4 12 10 0 13 -8 10 -25 -4 -22 -3
-24 10 -12 9 7 13 17 9 23 -3 6 -1 7 6 3 6 -4 8 -13 5 -19 -4 -7 -3 -9 1 -4
14 12 16 45 3 53 -7 5 -8 3 -3 -6 5 -9 4 -11 -4 -6 -6 4 -8 13 -4 19 11 18 15
57 6 57 -5 0 -9 17 -9 38 -1 20 -4 84 -9 142 -21 280 -2 613 50 865 103 497
358 914 715 1167 478 339 1158 404 1720 163 65 -28 81 -31 90 -20 8 9 8 15 0
20 -10 6 -14 -1 -11 -18 1 -5 -3 -6 -9 -2 -6 4 -7 12 -3 18 12 17 10 53 -2 47
-6 -3 -9 -13 -9 -22 1 -10 -3 -15 -7 -12 -5 3 -7 9 -4 14 3 4 -2 13 -10 20
-14 12 -14 15 0 30 10 11 12 21 7 24 -6 3 -13 -1 -16 -10 -5 -13 -9 -14 -21
-4 -11 9 -12 17 -5 30 7 13 7 21 0 25 -10 6 -14 -2 -10 -20 1 -5 -2 -7 -6 -3
-4 4 -14 2 -23 -5 -14 -10 -14 -10 -3 5 9 11 10 18 2 23 -6 3 -8 10 -5 15 3 4
-2 13 -10 20 -8 7 -15 9 -15 5 0 -4 -7 -2 -15 5 -8 7 -13 15 -10 19 2 4 -2 20
-10 35 -8 15 -14 30 -12 34 1 4 -3 8 -8 10 -5 1 -10 -2 -10 -7 0 -5 -3 -12 -7
-16 -3 -4 -5 0 -4 9 1 8 5 19 9 22 4 4 2 13 -4 21 -10 11 -15 11 -28 1 -14
-11 -14 -11 -3 4 9 11 10 18 2 23 -5 3 -10 12 -10 18 0 8 3 8 9 -2 8 -13 18
-5 16 14 -5 38 -18 74 -26 69 -5 -3 -7 -10 -4 -15 13 -21 13 -46 -1 -46 -9 0
-11 4 -5 10 11 11 3 39 -10 31 -5 -3 -6 -10 -3 -16 5 -7 2 -8 -5 -4 -7 5 -10
11 -7 14 3 3 1 11 -5 18 -7 8 -7 14 1 19 6 4 9 3 8 -2 -3 -7 5 -13 17 -13 3 0
0 10 -6 23 -11 19 -14 37 -18 95 -1 7 -5 11 -9 8 -10 -6 -9 -66 1 -82 3 -6 -3
-20 -16 -30 l-22 -19 18 22 c11 12 14 24 9 27 -6 3 -9 14 -7 24 1 9 -2 22 -7
29 -5 7 -5 14 2 18 6 3 8 10 5 15 -3 5 -1 11 5 15 5 3 10 18 10 32 0 36 9 25
12 -14 1 -18 5 -30 9 -27 4 2 5 -6 3 -18 -4 -22 -4 -22 6 1 6 13 13 21 16 18
3 -3 1 -14 -4 -24 -6 -11 -7 -25 -3 -32 7 -11 10 -11 14 0 4 9 6 8 6 -5 1 -12
-4 -16 -13 -13 -10 4 -13 -1 -11 -19 1 -14 6 -28 10 -32 4 -4 5 3 2 16 -11 44
9 21 25 -30 13 -39 16 -44 12 -18 -4 28 -3 32 6 17 6 -9 10 -25 9 -35 -1 -9 3
-28 9 -42 10 -21 12 -22 11 -5 -2 34 1 41 10 26 5 -8 6 -22 2 -30 -5 -9 -5
-25 0 -36 l8 -20 0 20 c1 16 3 17 11 5 5 -8 5 -17 0 -20 -5 -3 -5 -12 0 -20 8
-13 10 -12 10 3 0 10 5 15 10 12 8 -5 8 -11 0 -20 -8 -9 -8 -15 0 -20 6 -3 7
-11 4 -17 -4 -6 -3 -8 3 -5 6 4 19 0 29 -8 16 -13 17 -14 2 -9 -10 3 -18 1
-18 -5 0 -6 5 -10 12 -8 6 1 15 -9 19 -23 7 -23 7 -24 8 -3 1 16 5 21 17 16
12 -4 13 -8 3 -14 -10 -6 -10 -11 -1 -22 7 -7 8 -18 4 -22 -4 -5 -1 -5 7 0 10
6 12 4 6 -5 -6 -9 -4 -11 5 -5 9 6 11 4 5 -5 -6 -9 -4 -11 5 -5 9 6 11 4 5 -6
-8 -12 -6 -12 8 0 11 9 17 10 17 2 0 -6 -5 -11 -11 -11 -8 0 -8 -5 1 -15 7 -8
17 -12 23 -8 6 4 7 1 2 -8 -8 -12 -6 -12 8 0 11 9 17 10 17 2 0 -6 -4 -11 -10
-11 -5 0 -6 -8 -3 -17 5 -14 8 -12 16 10 5 15 13 24 18 21 6 -3 6 -10 1 -17
-11 -15 -12 -48 0 -41 4 3 5 -1 2 -9 -3 -8 0 -18 7 -23 9 -5 10 -2 6 9 -10 27
1 20 17 -10 8 -16 15 -21 16 -13 0 9 8 3 19 -13 10 -16 21 -25 23 -20 3 4 3 2
2 -4 -2 -7 0 -12 4 -11 4 1 17 -3 30 -10 23 -13 30 -4 11 15 -7 7 -8 13 0 17
19 12 24 -41 6 -66 l-17 -23 7 23 c6 20 4 22 -19 18 -14 -3 -25 -2 -25 2 3 20
-3 25 -12 12 -9 -13 -10 -13 -6 1 3 9 1 22 -4 30 -7 11 -9 10 -9 -6 0 -15 -4
-12 -16 12 -9 18 -21 30 -26 27 -5 -3 -1 -15 9 -27 12 -15 13 -18 2 -9 -9 6
-18 9 -21 7 -3 -3 -5 2 -4 12 0 10 -3 18 -9 18 -5 0 -9 -4 -7 -8 1 -5 -2 -6
-8 -2 -5 3 -10 2 -10 -4 0 -9 123 -83 136 -81 3 1 12 -7 20 -17 7 -10 14 -15
14 -11 0 4 10 -3 23 -15 13 -12 63 -56 113 -98 166 -141 305 -326 415 -554
134 -278 208 -577 228 -926 52 -909 -250 -1633 -839 -2015 -84 -54 -250 -134
-332 -160 -32 -10 -58 -21 -58 -26 0 -4 -7 -5 -15 -2 -8 4 -15 1 -15 -6 0 -7
-8 -9 -20 -5 -11 4 -20 2 -20 -4 0 -6 -7 -8 -15 -5 -8 4 -15 1 -15 -6 0 -8 -9
-10 -26 -6 -19 5 -24 3 -18 -5 5 -9 -1 -10 -25 -6 -24 5 -30 4 -24 -6 4 -6 8
-21 8 -32 1 -11 6 -19 11 -18 7 1 10 -20 9 -57 -1 -41 1 -57 9 -52 6 4 14 7
19 7 4 0 6 4 5 10 -2 5 -5 9 -8 8 -3 -1 -6 13 -6 31 0 20 5 33 13 33 7 0 9 -5
5 -11 -12 -16 -8 -41 5 -39 14 3 11 -20 -5 -40 -9 -11 -10 -17 -2 -22 7 -4 8
-11 2 -18 -5 -7 -7 -21 -5 -32 3 -11 5 -30 5 -42 0 -13 5 -20 13 -17 10 4 14
39 4 39 -1 0 -3 10 -4 22 -1 12 2 20 6 17 12 -7 11 3 -1 26 -7 13 -5 21 8 31
14 11 15 11 5 -1 -9 -9 -9 -19 -2 -33 8 -13 8 -22 0 -30 -21 -21 -11 -30 12
-11 22 19 22 19 5 -2 -17 -19 -17 -21 0 -38 9 -9 12 -16 7 -14 -6 2 -11 -1
-13 -7 -1 -5 4 -10 11 -10 6 0 12 -6 12 -12 0 -7 5 -12 10 -10 5 1 9 5 8 8 -1
3 5 6 13 6 10 0 5 -10 -14 -31 -34 -36 -35 -77 -2 -136 7 -14 13 -26 12 -27
-1 -2 1 -2 6 -1 4 2 5 7 3 13 -2 5 -3 18 -3 28 0 10 -4 15 -10 11 -6 -4 -8 -3
-4 4 3 6 2 13 -3 16 -16 10 -6 65 14 84 19 16 19 16 2 -4 -12 -14 -14 -23 -6
-31 8 -8 8 -13 0 -17 -6 -4 -11 -12 -11 -18 0 -6 7 -5 18 3 15 13 16 12 4 -3
-9 -12 -10 -18 -2 -23 6 -4 9 -13 6 -20 -2 -7 2 -22 10 -33 8 -12 14 -25 13
-29 -3 -20 2 -24 19 -12 9 7 3 -2 -15 -21 -18 -20 -29 -40 -25 -45 9 -14 33
-13 30 0 -2 6 -7 9 -13 7 -5 -2 -1 6 9 17 21 23 35 29 17 7 -9 -10 -9 -16 -1
-21 8 -5 8 -11 1 -19 -6 -7 -9 -15 -6 -18 3 -3 -4 -13 -15 -23 -24 -22 -25
-33 -4 -57 13 -13 14 -21 5 -31 -9 -11 -7 -17 6 -28 15 -12 16 -12 11 2 -3 9
-2 22 2 30 6 9 2 21 -11 35 -19 20 -19 20 8 45 15 13 22 17 15 7 -9 -11 -10
-18 -2 -23 8 -5 8 -10 0 -20 -8 -9 -8 -15 0 -20 7 -4 7 -12 0 -24 -5 -10 -7
-21 -3 -24 3 -4 1 -12 -5 -20 -7 -8 -7 -18 -2 -27 9 -14 11 -13 14 9 0 5 4 12
8 16 12 12 3 -22 -10 -38 -9 -11 -10 -17 -2 -22 8 -5 7 -12 -4 -24 -9 -10 -13
-21 -10 -24 4 -4 13 1 21 11 13 15 13 15 4 -4 -5 -11 -17 -26 -25 -33 -9 -8
-13 -18 -9 -24 3 -6 1 -7 -5 -3 -18 11 -15 -29 3 -44 18 -15 20 1 3 19 -10 11
-10 13 0 7 10 -6 16 4 14 25 -1 4 11 17 26 30 26 23 26 23 7 1 -18 -22 -25
-40 -27 -72 -1 -8 -9 -29 -19 -46 -16 -29 -16 -33 -1 -48 13 -13 13 -17 3 -14
-9 2 -15 -6 -16 -22 -1 -14 -4 -29 -6 -35 -2 -5 1 -11 6 -12 6 -2 10 1 10 6 0
5 3 12 7 16 4 4 5 12 4 18 -2 7 -1 9 1 4 3 -4 10 -4 16 0 7 3 3 -3 -7 -15 -11
-12 -16 -22 -11 -22 4 0 3 -6 -4 -13 -7 -9 -7 -17 0 -24 6 -6 5 -10 -5 -10 -8
0 -14 3 -13 6 1 3 -2 7 -8 8 -5 1 -9 -6 -8 -15 1 -10 0 -11 -3 -4 -6 13 -24 7
-24 -9 0 -15 72 1 90 20 8 10 11 11 6 4 -11 -17 5 -17 91 2 350 74 691 216
978 407 l130 86 18 -75 c36 -159 157 -318 294 -391 123 -65 177 -72 540 -72
352 0 367 2 391 55 18 39 17 5442 -1 5464 -7 8 -7 12 -1 9 6 -4 10 3 10 18 0
13 -3 24 -7 24 -12 0 -29 -27 -21 -35 4 -5 1 -5 -6 -1 -7 4 -10 11 -7 16 3 5
1 11 -4 14 -5 3 -11 -1 -15 -9 -3 -8 -1 -17 4 -20 7 -4 7 -13 0 -24 -5 -10 -7
-21 -5 -25 3 -3 2 -4 -2 -1 -9 7 -43 -46 -37 -57 3 -5 0 -7 -8 -6 -7 2 -12 -3
-10 -10 1 -6 -1 -11 -5 -10 -5 2 -8 -1 -8 -7 0 -5 4 -8 10 -7 5 2 6 0 2 -4
-10 -10 -37 -14 -35 -6 1 4 -2 15 -6 24 -4 10 -6 23 -3 30 3 7 6 3 6 -10 1
-13 5 -20 11 -17 6 4 8 11 5 16 -12 19 -14 50 -3 43 7 -5 8 -2 3 6 -6 9 -4 11
5 5 9 -6 11 -4 5 5 -6 9 -4 11 5 5 9 -6 11 -4 5 5 -6 9 -4 11 6 5 8 -5 11 -5
7 0 -8 8 16 60 40 88 13 15 14 20 3 26 -9 6 -10 11 -2 15 6 4 11 2 11 -4 0 -6
5 -8 11 -4 8 4 7 9 -2 15 -14 9 -13 9 19 9 4 0 7 -12 7 -27 1 -15 5 -28 10
-30 12 -4 12 153 1 179 -4 9 -5 21 -2 27 4 5 2 13 -4 16 -8 5 -8 11 0 20 8 9
8 15 0 20 -6 3 -8 10 -5 15 3 5 1 11 -4 14 -10 7 -9 -13 2 -31 4 -6 3 -15 -3
-18 -8 -5 -8 -11 -1 -19 7 -8 6 -21 -4 -39 -15 -29 -15 -29 -15 -53 0 -8 -4
-13 -9 -9 -6 3 -8 14 -6 25 2 11 0 22 -4 24 -4 3 -7 -9 -7 -27 1 -23 -3 -31
-14 -29 -12 3 -12 1 -3 -9 10 -10 9 -17 -5 -33 -10 -12 -12 -16 -3 -11 11 6
13 4 8 -8 -3 -9 -2 -19 4 -22 5 -4 6 -11 3 -17 -4 -6 -12 -1 -21 13 -14 24
-14 24 -8 1 4 -12 3 -22 -2 -21 -21 4 -23 -3 -9 -23 23 -33 19 -47 -4 -18 -15
18 -18 20 -13 6 5 -15 3 -17 -8 -11 -11 7 -12 6 -2 -6 8 -9 9 -20 3 -29 -9
-14 -11 -13 -14 9 0 5 -4 13 -8 17 -4 4 -2 14 5 23 11 14 10 14 -6 2 -10 -8
-14 -18 -9 -25 4 -6 7 -47 7 -91 -1 -59 -6 -87 -19 -107 -10 -16 -16 -34 -13
-43 4 -8 2 -17 -2 -20 -9 -5 -8 31 2 73 3 12 2 22 -2 22 -9 0 -25 -57 -22 -74
1 -5 -5 -3 -14 4 -14 12 -15 10 -11 -14 3 -15 10 -34 16 -41 8 -10 8 -15 -1
-21 -7 -4 -9 -3 -6 2 3 5 -4 21 -15 34 -13 16 -18 19 -14 8 8 -25 -1 -22 -15
3 -8 15 -8 19 0 15 6 -4 16 4 23 19 9 19 14 22 21 13 6 -9 7 -7 2 7 -8 23 -8
24 -6 48 0 10 5 16 10 13 4 -3 7 -16 6 -28 -1 -13 0 -15 2 -5 2 9 13 22 24 27
15 9 19 20 17 58 l-2 47 -3 -47 c-5 -61 -19 -63 -18 -3 1 25 -1 48 -5 50 -4 2
-6 -8 -5 -23 1 -15 -7 -38 -17 -51 -10 -13 -18 -30 -18 -38 0 -8 -5 -11 -10
-8 -6 4 -7 12 -3 18 5 8 2 8 -9 0 -8 -7 -18 -10 -21 -7 -4 4 -4 -4 -1 -17 9
-35 6 -61 -6 -73 -8 -8 -9 -2 -5 24 5 32 5 33 -8 16 -11 -15 -12 -26 -3 -49 8
-21 12 -24 14 -12 3 15 6 13 16 -6 7 -13 17 -23 23 -22 5 1 10 -5 10 -12 0
-10 -4 -12 -12 -5 -17 14 -27 0 -12 -19 11 -14 10 -15 -7 -1 -18 14 -19 13
-13 -2 3 -10 3 -19 -1 -22 -14 -9 -11 33 4 44 7 7 11 17 8 22 -7 11 -39 -31
-39 -52 0 -24 -15 -41 -28 -33 -20 12 -38 12 -34 0 3 -7 11 -11 18 -9 9 2 7
-4 -5 -17 -10 -11 -24 -17 -30 -14 -19 12 -37 12 -33 0 2 -7 9 -12 15 -12 5 0
13 -3 17 -6 3 -4 -5 -6 -17 -5 -15 1 -22 -4 -20 -13 3 -12 0 -12 -12 -1 -9 7
-15 22 -15 34 2 20 2 20 6 -2 2 -12 9 -20 14 -17 5 4 5 14 -2 27 -7 12 -7 18
-1 14 6 -4 8 2 4 16 -3 14 -2 19 7 14 6 -4 9 -11 6 -16 -3 -5 -1 -12 5 -15 6
-4 10 -3 9 2 -1 4 -1 15 0 23 1 12 3 12 10 2 6 -10 12 -4 24 20 13 25 17 28
17 13 1 -18 2 -18 11 3 5 13 13 20 19 17 6 -4 10 -3 9 2 -1 4 -1 15 0 23 1 13
2 13 11 0 18 -28 9 5 -11 40 -14 26 -18 28 -13 10 6 -23 6 -24 -12 -10 -12 9
-15 9 -7 1 13 -15 6 -44 -8 -35 -5 3 -6 11 -2 17 3 7 -2 4 -13 -5 -19 -17 -21
-17 -39 0 -13 11 -12 9 2 -8 16 -18 19 -30 13 -40 -9 -14 -11 -13 -14 9 -2 18
-13 21 -13 4 0 -35 -3 -44 -13 -38 -6 4 -7 12 -3 18 3 7 -3 4 -14 -6 -11 -9
-23 -15 -26 -12 -4 3 -3 -1 3 -7 19 -22 10 -31 -12 -12 -13 10 -18 12 -12 4 6
-8 9 -21 8 -27 -1 -7 -2 -19 -3 -25 -1 -10 -4 -9 -10 1 -5 8 -7 21 -4 30 3 9
-2 6 -11 -7 -10 -13 -22 -19 -29 -15 -30 19 -43 6 -25 -23 4 -6 1 -20 -8 -30
-14 -18 -15 -18 -9 6 5 19 4 22 -4 10 -6 -8 -8 -24 -5 -35 5 -20 5 -20 -10 -1
-11 14 -13 23 -5 32 7 8 6 14 -2 20 -7 4 -9 3 -5 -4 3 -6 2 -13 -3 -17 -6 -3
-8 -12 -5 -20 8 -19 -20 -13 -48 11 -23 19 -23 19 -6 -1 14 -17 14 -23 4 -37
-7 -10 -16 -15 -19 -11 -4 3 -1 13 6 22 11 14 10 14 -5 2 -10 -7 -16 -17 -13
-21 3 -5 -1 -11 -7 -13 -10 -4 -10 -6 0 -6 17 -1 15 -18 -3 -18 -8 0 -15 7
-16 16 0 12 -3 11 -9 -4 -6 -14 -9 -16 -10 -5 -2 8 -2 18 -2 21 1 3 -5 6 -13
6 -12 0 -11 -4 1 -21 19 -27 18 -47 -1 -22 -8 11 -15 14 -15 7 0 -7 -4 -10
-10 -6 -5 3 -6 13 -3 23 3 9 3 14 -1 10 -7 -6 -13 -27 -15 -53 -1 -5 -5 -3
-10 5 -6 8 -7 18 -4 24 3 5 1 6 -5 3 -7 -5 -7 -16 1 -37 l12 -31 8 26 c5 14
13 23 18 20 5 -4 1 -17 -7 -31 -9 -13 -14 -27 -11 -31 4 -3 11 5 17 18 8 19 9
20 8 4 -2 -11 1 -25 5 -32 4 -6 3 -15 -3 -18 -6 -4 -9 -3 -8 2 2 4 -1 9 -7 10
-5 1 -9 -6 -9 -17 1 -11 -2 -17 -7 -15 -4 3 -6 13 -4 23 1 9 -8 37 -21 62 -13
25 -23 39 -24 32 0 -7 -5 -10 -10 -7 -6 4 -10 3 -9 -2 3 -20 -2 -34 -10 -28
-6 3 -8 14 -6 25 2 12 0 18 -6 15 -5 -4 -7 -10 -4 -15 3 -5 0 -12 -6 -15 -5
-4 -8 -13 -5 -21 3 -7 1 -16 -3 -19 -13 -7 -21 20 -10 36 5 8 9 19 8 24 0 6
-7 -3 -15 -18 -15 -27 -16 -28 -35 -12 -10 10 -16 22 -12 28 3 6 1 7 -6 3 -7
-5 -9 -12 -3 -19 4 -7 7 -18 6 -24 -1 -7 -2 -18 -3 -24 0 -5 -5 -8 -10 -4 -6
3 -8 14 -6 25 2 11 -1 23 -7 26 -6 4 -8 2 -4 -4 3 -6 2 -13 -4 -17 -6 -4 -7
-12 -3 -18 11 -18 13 -66 2 -72 -5 -4 -6 2 -3 12 5 16 4 16 -10 -1 -16 -20
-12 -41 6 -30 7 5 8 2 4 -5 -6 -9 -12 -8 -26 4 -13 12 -20 13 -25 5 -5 -8 -15
-4 -31 11 -28 26 -32 15 -6 -16 9 -11 5 -9 -10 6 -36 37 -45 23 -11 -15 16
-17 19 -23 7 -13 -11 9 -24 14 -29 10 -4 -5 -5 -3 -2 3 4 6 -2 19 -13 29 -18
16 -30 8 -13 -9 4 -4 8 -18 9 -32 0 -13 -2 -22 -5 -18 -3 3 -6 13 -7 22 0 10
-4 25 -9 35 -7 17 -8 17 -20 0 -7 -10 -11 -22 -8 -28 4 -6 2 -6 -3 -2 -9 8
-10 12 -13 40 -1 8 -4 8 -10 -3 -6 -8 -8 -17 -5 -21 2 -4 -3 -12 -10 -18 -11
-10 -14 -9 -12 3 1 9 5 19 9 22 4 4 7 12 7 18 -1 6 -9 0 -20 -13 -11 -12 -17
-28 -13 -35 4 -7 2 -7 -8 1 -12 10 -18 10 -29 0 -12 -10 -12 -9 -1 6 7 9 10
17 6 17 -4 0 -2 7 5 15 7 8 8 15 2 15 -15 0 -33 -26 -24 -35 4 -5 2 -5 -5 -1
-6 3 -17 -2 -23 -11 -9 -15 -11 -15 -6 -2 2 10 -6 27 -20 40 -27 26 -33 15 -7
-13 10 -11 13 -18 8 -16 -6 2 -10 -1 -10 -7 0 -5 4 -9 8 -7 5 1 5 -3 2 -9 -10
-15 -30 5 -31 31 -3 37 -4 41 -13 35 -5 -3 -7 -17 -5 -32 l5 -27 -22 27 c-12
16 -24 26 -27 23 -3 -3 3 -14 12 -25 13 -14 14 -21 5 -27 -7 -4 -10 -3 -6 3 4
6 0 16 -9 23 -8 7 -13 19 -10 26 3 7 1 16 -4 19 -6 4 -11 1 -11 -4 -2 -12 -5
-26 -9 -38 -1 -5 -1 -12 0 -18 1 -5 -2 -6 -7 -2 -4 5 -8 17 -8 28 0 10 -4 19
-10 19 -5 0 -9 -12 -9 -25 1 -24 0 -24 -16 -10 -9 8 -20 12 -24 8 -4 -5 -6 -3
-4 2 2 6 -1 11 -7 13 -5 1 -10 -2 -10 -7 0 -5 -4 -13 -9 -18 -5 -4 -6 -3 -2 4
3 6 2 14 -4 18 -5 3 -10 12 -10 18 0 8 3 8 9 -2 15 -23 19 2 5 29 -12 22 -19
21 -15 -3 1 -5 -3 -6 -9 -2 -12 7 -9 -23 5 -45 7 -12 6 -13 -7 -3 -8 7 -19 9
-24 5 -4 -4 -4 0 1 8 13 19 13 56 0 52 -6 -1 -9 -12 -9 -23 1 -11 -1 -17 -4
-14 -3 2 -12 -1 -20 -8 -9 -6 -13 -7 -9 -1 7 13 -19 54 -35 54 -6 0 -4 -8 6
-19 15 -17 15 -19 -1 -32 -16 -12 -17 -12 -5 2 10 13 9 19 -4 30 -14 12 -14
14 1 25 9 7 12 15 6 18 -5 4 -12 2 -16 -4 -4 -6 -11 -8 -16 -5 -14 9 -11 -8 8
-34 9 -14 11 -21 5 -17 -12 7 -46 64 -47 78 -1 17 -15 19 -16 2 0 -14 -3 -12
-11 9 -5 15 -14 24 -19 21 -6 -3 -5 -12 3 -22 12 -15 11 -16 -4 -3 -10 7 -16
17 -13 21 2 4 -2 16 -11 26 -14 18 -15 18 -9 -6 l6 -25 -15 25 c-9 14 -16 21
-16 15 -1 -13 -30 26 -30 39 1 6 8 0 16 -14 14 -24 15 -24 11 -3 -3 13 -1 26
4 29 5 3 10 -7 10 -23 l1 -28 8 30 c8 30 11 30 14 -2 2 -25 25 -63 26 -43 0 9
6 5 15 -10 8 -14 14 -20 14 -15 1 6 -3 16 -8 24 -11 16 -3 43 10 36 4 -3 6
-12 3 -20 -3 -7 -1 -22 5 -32 8 -14 10 -15 11 -3 0 13 2 13 11 0 9 -13 10 -12
5 2 -3 10 0 20 6 24 7 5 9 -2 6 -19 -3 -15 -2 -24 3 -22 4 3 5 -5 1 -17 -3
-14 -2 -19 7 -14 6 4 9 12 6 17 -4 5 -1 9 4 9 6 0 11 -4 11 -8 0 -5 7 -9 15
-10 8 -1 22 -3 30 -4 8 -1 11 -6 8 -11 -4 -6 -1 -7 7 -2 7 4 16 2 21 -6 7 -11
9 -11 9 3 0 9 5 20 11 24 8 4 9 -1 4 -17 -5 -19 -4 -21 4 -9 9 13 11 13 11 1
0 -11 4 -9 15 5 15 19 16 19 13 -1 -2 -14 3 -20 17 -20 15 1 19 6 17 24 -1 13
3 29 8 36 8 9 8 15 0 20 -6 4 -9 3 -8 -2 2 -4 -1 -9 -7 -10 -5 -1 -9 6 -9 17
1 11 -2 17 -7 15 -4 -3 -6 -14 -4 -25 2 -11 0 -22 -6 -25 -8 -5 -13 7 -10 27
1 10 -25 3 -43 -11 -21 -17 -21 -3 0 20 10 11 12 19 4 24 -6 3 -9 1 -8 -6 4
-16 -24 -19 -35 -4 -5 6 -7 4 -6 -5 3 -20 -11 -50 -22 -50 -6 0 -5 9 1 21 7
11 9 23 6 26 -3 4 -1 12 5 19 7 8 7 14 -1 19 -6 4 -9 3 -8 -2 2 -4 -1 -8 -7
-8 -5 0 -9 3 -8 6 1 3 -4 6 -11 6 -8 0 -12 -12 -11 -34 1 -18 -2 -33 -7 -33
-7 0 -12 25 -9 60 0 10 -1 11 -5 2 -8 -18 -24 -4 -18 16 5 15 4 15 -6 -1 -11
-17 -30 -15 -30 4 0 6 4 8 8 5 5 -3 9 1 9 8 0 7 -6 13 -13 13 -7 0 -12 -3 -11
-6 3 -14 -15 -51 -24 -46 -5 3 -3 14 4 25 10 17 8 23 -13 42 -13 13 -18 16
-11 6 7 -10 8 -18 2 -22 -8 -5 -24 23 -26 46 0 3 -4 10 -9 15 -5 4 -6 3 -3 -3
4 -7 -1 -18 -10 -25 -14 -12 -15 -11 -8 11 4 14 4 22 0 18 -4 -4 -9 -18 -10
-32 -2 -13 -6 -34 -10 -47 -6 -19 -9 -20 -16 -7 -5 9 -12 33 -15 54 -3 22 -10
46 -14 54 -4 8 -8 18 -9 23 -1 4 -2 9 -2 12 -1 3 -2 9 -3 14 0 5 -4 12 -8 16
-8 9 -5 -16 5 -32 4 -6 3 -14 -2 -17 -5 -3 -12 1 -15 10 -3 8 -10 13 -15 10
-5 -3 -12 1 -15 10 -3 9 -11 12 -18 8 -7 -5 -9 -2 -5 9 3 8 -1 21 -9 28 -12
10 -16 9 -21 -9 -3 -12 -10 -19 -15 -16 -5 3 -2 17 7 31 10 14 13 23 7 19 -12
-7 -34 18 -24 29 4 5 1 4 -7 0 -11 -6 -13 -4 -8 11 7 18 6 18 -6 2 -8 -10 -17
-15 -20 -11 -4 3 -2 12 5 20 6 7 8 16 4 20 -3 3 -6 1 -6 -6 0 -7 -5 -9 -10 -6
-8 5 -7 12 2 23 9 12 6 11 -10 -2 -19 -17 -33 -10 -15 8 4 3 8 14 9 22 1 9 -1
13 -4 9 -4 -4 -7 -10 -8 -13 -2 -20 -17 -41 -26 -36 -5 3 -5 11 2 19 8 9 8 20
2 32 -5 10 -8 25 -7 34 3 17 -17 20 -32 5 -4 -4 -3 -6 2 -4 9 3 15 -4 15 -17
0 -3 -9 -1 -21 5 -19 11 -20 13 -4 30 11 12 13 20 5 25 -5 3 -8 10 -6 14 3 4
-1 8 -9 8 -8 0 -12 -4 -9 -8 2 -4 0 -10 -5 -13 -14 -9 -21 20 -8 34 9 9 9 11
0 6 -17 -9 -51 51 -48 86 2 25 -8 32 -11 7 -3 -22 -5 -23 -14 -9 -5 9 -5 19 2
27 6 7 7 13 3 13 -5 0 0 10 11 23 19 22 19 22 -2 4 -20 -16 -21 -16 -37 1 -12
13 -14 21 -6 29 8 8 7 13 -2 18 -7 5 -10 4 -5 -3 3 -6 2 -13 -3 -16 -5 -3 -11
1 -15 9 -3 8 -1 17 5 21 6 4 4 13 -7 25 -9 10 -21 16 -25 13 -16 -10 -9 13 13
42 l22 29 -22 -19 c-26 -23 -29 -11 -4 18 17 21 17 21 -5 2 -13 -11 -23 -14
-23 -9 0 6 7 16 15 23 11 9 12 16 5 25 -5 6 -6 16 -2 20 4 5 1 5 -6 1 -10 -6
-10 -11 -2 -21 7 -8 7 -15 1 -19 -11 -7 -25 29 -16 43 3 5 1 12 -3 15 -5 3 -8
21 -7 40 2 21 -3 40 -11 47 -13 10 -11 16 8 38 l23 26 -22 -19 c-13 -11 -23
-14 -23 -8 0 6 4 13 9 16 5 4 8 14 6 24 -1 9 2 24 8 32 9 13 9 13 -3 2 -8 -7
-15 -22 -15 -32 0 -11 -4 -20 -10 -20 -14 0 -13 32 3 52 9 11 10 18 2 23 -5 3
-7 12 -3 18 12 19 12 36 1 43 -5 3 -2 14 9 26 17 19 26 65 13 73 -4 2 -6 -8
-6 -23 1 -15 -3 -28 -9 -28 -5 -1 -9 2 -7 8 1 5 -2 7 -7 4 -5 -3 -12 1 -15 10
-9 24 -7 28 8 15 12 -10 14 -7 11 20 -3 18 0 39 6 46 7 7 8 13 4 13 -5 0 0 9
10 20 10 11 14 20 10 20 -4 0 0 10 11 23 l19 22 -22 -19 c-13 -10 -20 -22 -18
-26 3 -4 -3 -14 -12 -21 -14 -12 -15 -11 -8 11 4 14 17 36 29 50 l21 25 -22
-19 c-13 -11 -23 -14 -23 -8 0 6 5 14 11 17 6 4 8 13 5 20 -2 7 1 18 7 24 6 6
7 11 2 11 -4 0 0 10 11 22 15 19 16 20 2 9 -15 -11 -18 -11 -18 0 0 11 -2 11
-10 -1 -8 -12 -10 -12 -11 5 l0 20 -9 -20 c-7 -17 -9 -17 -9 -2 -1 9 -6 17
-12 17 -5 0 -7 -5 -4 -10 4 -6 8 -27 10 -47 2 -20 0 -32 -3 -26 -4 6 -7 -10
-7 -35 -1 -77 -8 -143 -17 -148 -4 -3 -8 -11 -8 -17 0 -9 3 -8 8 1 5 8 8 -1 8
-22 -1 -20 -5 -32 -11 -28 -5 3 -3 -3 5 -13 8 -10 10 -16 4 -12 -6 3 -11 0
-11 -8 0 -8 3 -12 6 -11 3 2 7 -26 9 -62 3 -100 8 -155 15 -172 4 -8 8 -33 10
-55 4 -39 4 -39 5 8 1 26 6 47 11 47 6 0 8 -8 7 -17 -2 -10 -6 -39 -10 -65 -4
-25 -13 -52 -21 -58 -8 -7 -13 -16 -10 -20 3 -5 1 -11 -4 -14 -13 -8 -7 22 7
36 15 15 16 52 2 43 -6 -4 -8 -10 -5 -15 3 -4 -3 -14 -13 -21 -15 -13 -16 -12
-3 4 7 9 10 17 5 17 -4 0 -3 5 4 12 15 15 16 102 2 93 -6 -4 -8 -11 -4 -16 3
-5 0 -8 -7 -7 -8 2 -13 -6 -14 -19 0 -39 -10 -32 -11 8 -1 22 2 35 6 29 4 -7
9 -8 12 -4 7 14 3 88 -6 102 -4 7 -5 16 -1 21 3 6 -9 27 -27 48 -18 21 -23 30
-11 20 24 -21 38 -9 28 26 -5 17 -4 19 4 7 9 -13 11 -13 11 2 0 25 -18 31 -29
10 -7 -13 -6 -23 2 -33 7 -7 2 -5 -10 5 -23 19 -31 32 -13 21 10 -6 13 5 11
35 0 10 1 11 5 2 3 -6 10 -9 15 -6 6 3 5 11 -2 20 -10 12 -10 15 2 12 8 -2 15
7 17 21 2 15 0 21 -7 16 -6 -3 -9 -11 -5 -16 3 -5 1 -8 -4 -7 -5 2 -19 -8 -31
-22 l-22 -25 16 27 c11 18 13 28 5 33 -8 5 -8 11 1 21 6 8 8 14 5 14 -4 0 2
13 13 29 22 30 29 67 11 56 -6 -4 -8 -10 -5 -15 3 -5 1 -11 -4 -14 -10 -7 -9
20 2 30 4 4 -1 17 -10 28 -18 21 -18 21 4 3 13 -11 23 -14 27 -8 10 16 3 71
-11 83 -7 6 -13 15 -13 20 0 6 9 0 20 -13 10 -13 19 -19 20 -13 0 5 -5 15 -10
20 -8 8 -6 15 5 24 8 7 15 17 15 23 0 5 -10 2 -22 -9 -14 -12 -18 -13 -10 -3
6 9 8 20 4 24 -4 5 -2 5 4 2 7 -4 18 1 25 10 13 15 11 16 -11 9 -48 -13 -70
-14 -70 0 0 10 -11 12 -40 8 -23 -3 -46 -1 -53 4 -7 6 -59 10 -127 8 -63 -1
-122 0 -130 4 -8 3 -89 3 -180 -1z m665 -88 c-2 -9 -4 -18 -5 -21 -1 -3 -2 -9
-1 -14 1 -4 -4 -14 -10 -22 -7 -8 -9 -17 -6 -20 3 -3 1 -17 -4 -31 -6 -17 -6
-30 1 -38 8 -10 8 -15 0 -20 -7 -4 -9 -17 -6 -29 4 -15 1 -23 -8 -23 -8 0 -13
7 -11 16 2 14 17 138 21 181 3 33 5 37 18 37 7 0 12 -7 11 -16z m-104 -38 c13
-16 12 -17 -3 -4 -17 13 -22 21 -14 21 2 0 10 -8 17 -17z m15 -49 c2 -12 -1
-13 -12 -3 -7 6 -11 16 -8 21 7 11 17 3 20 -18z m-36 -78 c0 -2 -8 -10 -17
-17 -16 -13 -17 -12 -4 4 13 16 21 21 21 13z m96 -121 c0 -5 -5 -9 -11 -7 -5
2 -1 -6 10 -18 24 -26 23 -23 7 -43 -9 -11 -10 -17 -2 -22 8 -5 8 -12 -2 -23
-16 -21 -16 -40 0 -69 7 -13 10 -23 6 -23 -4 0 1 -9 11 -20 14 -15 15 -20 4
-21 -10 0 -11 -2 -1 -6 20 -8 14 -20 -10 -18 -19 1 -22 8 -25 46 -1 24 -4 74
-6 112 -3 46 -1 67 7 67 7 0 7 3 1 8 -5 4 -11 25 -13 47 -3 37 -2 38 11 20 8
-11 14 -24 13 -30z m-71 -163 c-1 -9 1 -22 6 -28 5 -6 4 -11 -5 -11 -8 0 -12
11 -11 26 1 14 -5 35 -14 46 -16 20 -16 20 6 2 11 -10 20 -26 18 -35z m-28
-37 c0 -8 -4 -12 -9 -9 -5 3 -6 10 -3 15 9 13 12 11 12 -6z m20 -30 c0 -8 -4
-12 -9 -9 -5 3 -6 10 -3 15 9 13 12 11 12 -6z m0 -40 c0 -8 -4 -12 -9 -9 -5 3
-6 10 -3 15 9 13 12 11 12 -6z m119 -68 c1 -12 5 -37 8 -56 3 -21 2 -31 -4
-25 -11 11 -26 122 -15 111 5 -4 10 -17 11 -30z m-79 -25 c-10 -10 -14 -22
-10 -27 5 -4 2 -5 -5 -1 -11 6 -10 12 4 27 9 10 19 19 22 19 3 0 -2 -8 -11
-18z m132 -138 c-8 -9 -1 -22 25 -52 35 -38 35 -40 17 -56 -19 -17 -19 -17
-14 2 6 24 -14 65 -28 57 -5 -4 -9 2 -10 12 0 10 -2 30 -3 45 -1 21 1 24 11
16 10 -8 10 -14 2 -24z m2466 -29 c1 -40 -2 -51 -11 -44 -7 6 -19 3 -36 -10
-25 -20 -25 -20 -22 2 1 12 3 24 3 27 1 3 6 -2 11 -10 7 -11 10 -11 10 -2 0 7
4 11 9 7 5 -3 13 0 17 6 5 8 3 9 -6 4 -9 -6 -11 -4 -5 6 8 12 6 12 -8 0 -9 -7
-17 -11 -17 -7 0 3 0 9 0 14 0 4 4 7 9 7 17 0 20 6 30 64 1 2 4 1 8 -3 4 -4 8
-32 8 -61z m-71 -117 c-10 -13 -19 -24 -19 -25 -1 -1 -6 6 -13 17 -10 16 -9
18 8 15 11 -2 22 0 25 6 4 5 9 9 12 9 3 0 -2 -10 -13 -22z m-2318 4 c-3 -5 6
-25 20 -45 14 -20 22 -37 19 -37 -3 0 -1 -9 5 -21 9 -15 15 -18 24 -10 17 14
29 2 15 -15 -9 -11 -17 -10 -41 7 -20 15 -26 25 -19 32 12 12 -27 69 -42 60
-5 -3 -4 4 2 16 7 11 14 21 17 21 3 0 3 -4 0 -8z m2261 -89 c-22 -23 -27 -25
-27 -10 0 10 4 16 9 12 10 -5 33 27 27 37 -1 3 2 2 8 -3 7 -6 1 -18 -17 -36z
m83 -27 c0 -2 -8 -10 -17 -17 -16 -13 -17 -12 -4 4 13 16 21 21 21 13z m-163
-66 c-1 -12 -5 -16 -10 -11 -5 5 -6 14 -3 20 11 16 15 13 13 -9z m-2052 -31
c-5 -7 -11 -6 -21 2 -11 9 -12 15 -2 26 10 12 13 12 20 -1 5 -9 6 -21 3 -27z
m2000 -55 c-12 -22 -15 -24 -12 -8 3 12 1 28 -4 35 -12 20 2 33 18 16 13 -13
13 -18 -2 -43z m112 28 c-10 -10 -14 -22 -10 -27 5 -4 2 -5 -5 -1 -11 6 -10
12 4 27 9 10 19 19 22 19 3 0 -2 -8 -11 -18z m-2061 -26 c1 -7 -5 -13 -12 -13
-16 0 -16 0 -8 22 7 17 17 13 20 -9z m-105 -23 c13 -16 12 -17 -3 -4 -17 13
-22 21 -14 21 2 0 10 -8 17 -17z m162 -39 c-4 -10 -9 -12 -15 -6 -12 12 -1 35
12 27 5 -3 6 -13 3 -21z m1813 -19 c-9 -14 -21 -23 -26 -20 -6 4 -14 -4 -19
-17 -5 -13 -18 -24 -29 -25 -15 -1 -19 3 -15 13 4 12 8 12 21 2 10 -8 13 -9 9
-1 -4 6 0 19 9 27 9 9 11 16 4 16 -6 0 -8 5 -4 12 5 8 11 6 19 -5 11 -15 13
-14 24 9 6 15 14 24 18 21 3 -4 -2 -18 -11 -32z m-1771 -8 c0 -7 4 -12 8 -12
5 0 13 -8 18 -18 6 -9 14 -15 20 -12 5 4 9 3 10 -2 0 -4 2 -17 4 -28 l4 -20
-15 20 c-9 11 -19 19 -24 18 -5 -2 -14 6 -20 17 -6 12 -16 17 -22 14 -8 -5 -9
-1 -5 10 4 10 7 23 7 28 0 6 3 8 7 4 4 -4 8 -13 8 -19z m1658 -68 c-3 -11 -11
-23 -18 -25 -15 -6 -13 -38 5 -59 11 -14 11 -16 -1 -13 -9 2 -14 -5 -13 -19 0
-12 -3 -20 -8 -17 -5 3 -8 14 -6 23 2 10 -1 19 -7 19 -5 1 -10 -7 -10 -17 0
-11 -4 -23 -9 -28 -5 -4 -6 -3 -3 3 4 7 0 17 -8 24 -18 15 -18 10 -5 -24 6
-16 6 -27 -1 -31 -5 -4 -9 -3 -8 2 4 23 -2 43 -13 41 -22 -5 -37 -41 -27 -63
10 -19 9 -19 -5 -2 -8 11 -12 26 -8 35 5 15 4 15 -11 3 -12 -10 -14 -17 -7
-26 7 -9 6 -16 -4 -25 -13 -10 -15 -8 -11 9 2 11 -1 23 -6 27 -6 4 -6 11 2 20
6 8 9 17 5 21 -3 3 -6 1 -6 -6 0 -7 -4 -9 -10 -6 -5 3 -10 10 -10 15 0 11 30
6 38 -7 4 -6 19 8 34 33 15 24 24 43 20 41 -4 -1 -8 1 -9 6 -6 16 13 7 27 -14
14 -21 14 -22 -2 -17 -12 5 -15 3 -11 -8 4 -11 9 -12 19 -3 10 8 11 16 4 29
-6 11 -6 21 -1 24 5 3 12 -2 16 -12 6 -16 7 -16 20 2 8 10 12 23 9 28 -3 5 0
7 8 6 7 -2 14 4 14 12 3 29 4 31 13 26 5 -3 7 -15 4 -27z m117 -22 c0 -2 -12
-14 -27 -28 l-28 -24 24 28 c23 25 31 32 31 24z m-1673 -54 c1 -24 0 -25 -6
-8 -7 17 -6 35 2 35 2 0 3 -12 4 -27z m93 -7 c0 -5 -8 -2 -17 5 -10 8 -14 9
-10 2 4 -6 3 -14 -3 -18 -14 -9 -13 18 2 33 9 9 14 9 20 -1 4 -6 8 -16 8 -21z
m32 -28 c-7 -7 -10 -5 -7 8 5 29 6 30 12 16 3 -8 1 -18 -5 -24z m1233 -70 c1
-21 -3 -36 -9 -35 -6 1 -10 -4 -8 -11 1 -8 -2 -11 -8 -7 -6 3 -8 10 -5 15 3 4
-2 13 -10 20 -13 11 -15 10 -12 -6 1 -11 7 -26 12 -34 7 -12 6 -13 -7 -3 -20
17 -31 4 -15 -16 11 -14 10 -14 -5 -2 -10 7 -16 17 -13 21 3 4 -3 14 -12 21
-15 12 -16 12 -10 -3 3 -10 3 -17 -1 -17 -19 3 -22 -3 -11 -23 8 -17 8 -20 0
-12 -6 6 -14 20 -16 32 -3 12 -7 31 -10 43 -3 17 -2 19 10 9 10 -8 15 -8 22 2
4 8 17 14 28 14 13 0 20 6 19 17 -1 9 2 14 7 12 4 -3 13 4 20 16 11 21 12 22
22 3 6 -10 11 -36 12 -56z m-1166 26 c-14 -18 -24 -11 -15 11 3 9 11 13 16 10
8 -5 7 -11 -1 -21z m75 -27 c-10 -27 -20 -20 -20 13 0 26 2 28 13 17 8 -7 11
-21 7 -30z m1182 28 c-1 -8 -5 -17 -8 -21 -5 -4 -4 16 1 34 3 9 9 -1 7 -13z
m-1131 -25 c-13 -20 7 -32 25 -15 17 16 19 15 29 -4 6 -11 7 -22 2 -25 -5 -3
-12 1 -15 10 -5 12 -10 13 -19 6 -16 -14 -58 -11 -50 3 10 17 25 35 30 35 2 0
1 -4 -2 -10z m841 -82 c-2 -13 1 -28 6 -35 6 -7 5 -14 -2 -18 -6 -4 -10 -3 -9
2 1 4 0 11 -1 16 -1 4 -3 12 -4 17 -1 13 -21 13 -21 1 0 -5 -4 -13 -9 -18 -5
-4 -6 -3 -3 3 8 15 -19 39 -27 25 -4 -5 -16 -8 -27 -6 -13 3 -19 0 -16 -8 2
-7 13 -11 23 -9 18 2 18 2 1 -8 -9 -6 -15 -15 -12 -20 3 -5 1 -12 -5 -15 -6
-4 -10 -3 -9 2 1 4 1 10 -1 13 -9 23 -8 55 1 60 7 5 5 9 -6 13 -9 4 -13 3 -10
-3 3 -6 2 -10 -3 -10 -10 0 -8 -41 3 -62 3 -7 0 -5 -8 4 -8 10 -17 16 -20 13
-4 -3 -5 -2 -2 1 2 4 0 16 -6 27 -8 13 -8 17 0 13 12 -8 33 28 23 40 -4 5 1 2
11 -5 9 -7 17 -10 17 -5 0 5 5 1 11 -9 8 -14 14 -15 24 -7 8 6 11 19 8 28 -6
15 -4 15 9 4 14 -11 18 -10 29 9 l12 23 13 -27 c8 -14 12 -36 10 -49z m-737
21 c1 -3 -5 -6 -12 -6 -11 0 -14 23 -7 47 1 5 18 -30 19 -41z m678 -61 c-3 -8
-6 -5 -6 6 -1 11 2 17 5 13 3 -3 4 -12 1 -19z m-800 -23 c0 -8 -4 -12 -9 -9
-5 3 -6 10 -3 15 9 13 12 11 12 -6z m708 -5 c3 -6 -1 -7 -9 -4 -18 7 -21 14
-7 14 6 0 13 -4 16 -10z m-510 -9 c3 -5 2 -12 -3 -15 -5 -3 -9 1 -9 9 0 17 3
19 12 6z m-4274 -1888 c13 -16 12 -17 -3 -4 -17 13 -22 21 -14 21 2 0 10 -8
17 -17z m69 -8 c-7 -8 -10 -16 -6 -16 13 -3 26 -7 31 -9 13 -6 31 -6 41 2 6 4
11 2 11 -7 0 -7 -4 -13 -8 -12 -4 1 -6 -2 -5 -8 0 -5 7 -10 14 -11 11 -2 16
10 13 29 -1 5 3 6 9 2 5 -3 10 -1 10 6 0 7 3 10 6 6 3 -3 -1 -16 -10 -29 -25
-35 -19 -46 8 -13 13 16 22 34 19 39 -4 5 -1 6 6 2 8 -5 9 -12 2 -19 -6 -8 -4
-19 6 -32 15 -20 15 -20 10 1 -2 12 0 28 5 35 7 12 9 11 7 -1 -3 -31 1 -51 10
-46 5 3 7 19 6 36 -1 16 1 27 6 25 4 -3 6 -14 4 -25 -2 -10 3 -24 10 -30 12
-10 14 -6 10 20 -3 29 -2 31 13 18 20 -17 47 -18 47 -1 0 6 2 14 6 17 3 3 5
-5 5 -19 0 -13 -2 -23 -5 -22 -7 2 -11 -8 -11 -25 0 -9 4 -8 10 2 7 11 10 11
10 2 0 -7 4 -11 10 -7 5 3 7 13 4 23 -5 14 -4 15 5 2 9 -13 15 -8 13 11 -1 3
5 6 13 6 8 0 11 -5 7 -11 -11 -18 -11 -36 1 -36 6 0 2 -7 -9 -16 -10 -8 -13
-12 -5 -8 7 3 18 0 23 -7 7 -10 8 -2 5 26 -3 22 -3 34 0 27 2 -6 9 -9 14 -6 6
3 5 12 -3 22 -12 15 -11 16 5 3 11 -9 14 -18 8 -25 -5 -6 -11 -22 -13 -36 -2
-14 -9 -24 -16 -22 -7 1 -15 -5 -18 -13 -3 -8 -10 -13 -15 -10 -4 3 -6 12 -3
19 7 17 -12 30 -21 16 -5 -8 -11 -7 -21 1 -11 9 -15 8 -20 -5 -6 -15 -9 -15
-30 5 -13 12 -24 19 -24 15 0 -4 -6 -4 -12 1 -17 10 -31 11 -44 1 -7 -5 -17
-2 -24 7 -17 20 -32 9 -25 -18 6 -22 6 -22 -10 -3 -8 11 -13 29 -9 40 4 17 3
18 -5 6 -6 -8 -8 -23 -5 -32 9 -31 -5 -19 -19 15 -14 32 -14 32 -22 8 l-7 -24
-13 24 -13 24 -7 -28 c-7 -27 -8 -27 -26 -11 -20 18 -25 49 -10 59 6 3 8 15 6
27 -3 11 -1 18 2 14 11 -11 12 -35 2 -42 -5 -3 -9 -15 -8 -27 0 -22 0 -22 9 1
6 13 16 22 24 20 8 -2 14 2 13 7 -1 6 -5 9 -9 8 -3 -1 -5 3 -4 10 2 15 15 37
23 37 3 0 0 -7 -7 -15z m397 -40 c0 -8 -4 -12 -9 -9 -5 3 -6 10 -3 15 9 13 12
11 12 -6z m-650 -17 c-3 -8 -6 -5 -6 6 -1 11 2 17 5 13 3 -3 4 -12 1 -19z
m769 -13 c-1 -13 -4 -27 -7 -30 -5 -4 -4 41 0 53 4 10 8 -2 7 -23z m-87 -1
c-6 -8 -6 -14 0 -18 5 -3 12 0 15 6 4 9 5 8 5 -2 -1 -8 -1 -24 1 -35 l1 -20 9
20 c8 18 9 18 9 2 1 -10 5 -16 10 -13 13 9 1 47 -13 39 -6 -3 -8 -3 -4 2 4 4
2 15 -5 24 -10 14 -10 14 4 4 9 -7 18 -11 20 -8 3 2 6 -5 6 -16 1 -12 10 -27
20 -34 18 -14 47 -9 37 6 -3 5 -11 6 -17 2 -8 -5 -8 -2 0 9 7 8 9 19 5 23 -4
5 -1 5 6 1 7 -4 10 -11 7 -16 -3 -5 -1 -11 5 -15 5 -3 10 2 10 11 0 10 3 15 6
11 4 -3 3 -14 -1 -24 -12 -28 -13 -53 -2 -60 6 -3 7 -2 4 4 -3 5 0 21 8 36 7
14 11 27 9 30 -2 2 2 4 10 4 8 0 13 -8 11 -18 -2 -10 0 -21 6 -24 8 -6 13 8
10 28 -1 5 3 6 8 3 5 -4 12 0 14 6 4 9 6 10 6 1 1 -6 -3 -15 -9 -18 -5 -3 -10
-11 -10 -17 0 -6 9 -3 20 7 19 17 20 17 31 -9 9 -19 15 -23 20 -14 4 7 3 16
-4 21 -8 5 -5 7 8 5 12 -2 19 2 17 10 -1 8 2 11 8 7 7 -4 3 -16 -10 -32 -15
-19 -17 -30 -9 -44 5 -11 14 -17 19 -14 5 3 11 1 15 -5 4 -6 12 -7 18 -4 7 4
8 3 4 -2 -5 -5 -10 -7 -12 -4 -1 3 -12 -3 -23 -13 -13 -12 -22 -15 -27 -8 -3
6 -2 11 4 11 6 0 0 10 -12 23 -21 21 -22 22 -33 3 -12 -21 -30 -6 -21 18 3 7
-1 13 -8 13 -7 0 -10 -8 -7 -21 5 -20 4 -20 -21 3 -22 19 -28 21 -32 9 -3 -8
-12 -15 -20 -15 -8 0 -13 2 -10 5 2 3 0 13 -6 24 -10 19 -11 19 -36 -4 -19
-17 -25 -18 -20 -6 3 9 0 22 -8 28 -11 9 -16 7 -25 -10 l-11 -21 -20 25 c-10
13 -19 32 -20 43 -1 13 -3 12 -10 -7 -7 -23 -8 -24 -6 -2 3 30 20 30 28 0 l5
-23 6 22 c4 13 0 27 -8 34 -16 13 -11 26 10 26 11 0 13 -4 5 -13z m166 7 c3
-5 2 -12 -3 -15 -5 -3 -9 1 -9 9 0 17 3 19 12 6z m32 -16 c0 -8 -4 -12 -9 -9
-5 3 -6 10 -3 15 9 13 12 11 12 -6z m-747 -16 c0 -15 -18 -19 -23 -6 -3 8 1
14 9 14 8 0 14 -4 14 -8z m940 -125 c0 -8 -19 -13 -24 -6 -3 5 1 9 9 9 8 0 15
-2 15 -3z m100 -29 c0 -2 -6 -8 -13 -14 -10 -8 -14 -7 -14 2 0 8 6 14 14 14 7
0 13 -1 13 -2z m2247 -1692 c-4 -3 -1 -13 6 -22 11 -14 10 -14 -5 -2 -16 12
-16 31 -1 31 4 0 3 -3 0 -7z m60 -148 c0 -8 -4 -12 -9 -9 -5 3 -6 10 -3 15 9
13 12 11 12 -6z m0 -40 c0 -8 -4 -12 -9 -9 -5 3 -6 10 -3 15 9 13 12 11 12 -6z
m8 -34 c3 -5 2 -12 -3 -15 -5 -3 -9 1 -9 9 0 17 3 19 12 6z m52 -358 c-4 -3
-1 -13 6 -22 11 -14 10 -14 -5 -2 -16 12 -16 31 -1 31 4 0 3 -3 0 -7z m-3
-162 c3 -4 -4 -17 -17 -27 -22 -19 -22 -19 -4 2 9 11 14 24 10 27 -3 4 -4 7 0
7 3 0 8 -4 11 -9z m3 -46 c0 -8 -4 -12 -9 -9 -5 3 -6 10 -3 15 9 13 12 11 12
-6z m-21 -31 c2 -12 -1 -13 -12 -3 -7 6 -11 16 -8 21 7 11 17 3 20 -18z"/>
<path d="M31855 13211 c-3 -5 -2 -12 3 -15 5 -3 9 1 9 9 0 17 -3 19 -12 6z"/>
<path d="M31375 12610 c-4 -6 -12 -7 -18 -4 -7 4 -9 4 -5 -1 4 -4 3 -14 -3
-21 -7 -9 -6 -14 3 -20 7 -4 10 -4 6 1 -4 4 -3 14 3 22 10 11 15 11 28 1 14
-11 14 -11 4 3 -7 9 -10 19 -6 22 3 4 4 7 0 7 -3 0 -9 -5 -12 -10z"/>
<path d="M31290 12559 c-7 -11 -9 -23 -7 -26 3 -2 8 5 12 18 6 17 9 19 16 8 6
-9 9 -10 9 -2 0 22 -19 24 -30 2z"/>
<path d="M31199 12519 c0 -13 -3 -18 -6 -11 -3 8 -11 5 -24 -10 -10 -13 -18
-19 -19 -15 0 4 -10 2 -22 -5 -13 -7 -26 -11 -30 -10 -4 1 -5 -5 -1 -13 5 -14
7 -14 17 1 11 14 13 14 25 0 15 -18 33 -12 25 8 -8 20 12 28 26 11 18 -22 29
-9 23 28 -6 40 -13 48 -14 16z m11 -25 c0 -8 -19 -13 -24 -6 -3 5 1 9 9 9 8 0
15 -2 15 -3z"/>
<path d="M30975 12432 c-17 -15 -26 -24 -20 -20 6 4 17 2 23 -4 8 -8 13 -7 18
6 5 14 9 15 15 4 7 -10 9 -9 9 5 0 9 -5 17 -11 17 -5 0 -7 5 -4 10 10 16 2 11
-30 -18z m18 -7 c-3 -9 -8 -14 -10 -11 -3 3 -2 9 2 15 9 16 15 13 8 -4z"/>
<path d="M26173 10403 c4 -6 3 -14 -2 -18 -6 -3 -7 -13 -4 -21 5 -14 7 -14 16
2 9 16 10 16 23 -1 8 -10 14 -14 14 -8 0 7 -5 15 -10 18 -6 4 -7 12 -4 18 4 7
4 9 -1 5 -4 -4 -15 -2 -23 5 -11 8 -14 8 -9 0z"/>
<path d="M26384 10373 c7 -22 -8 -41 -19 -23 -4 6 -11 8 -16 4 -5 -3 -7 -10
-3 -15 3 -5 9 -7 14 -4 4 3 13 -2 20 -10 9 -11 17 -12 30 -5 13 7 21 7 25 0 5
-8 12 -7 22 2 9 7 18 11 21 8 3 -3 6 3 8 13 2 15 0 16 -13 5 -8 -6 -21 -13
-29 -14 -17 -3 -36 29 -26 42 4 5 3 6 -2 2 -5 -4 -16 -2 -24 5 -13 10 -14 9
-8 -10z m21 -23 c-3 -5 0 -10 7 -10 10 0 9 -3 -2 -9 -20 -13 -34 -2 -19 15 13
16 23 19 14 4z"/>
<path d="M26127 10360 c-3 -11 -3 -20 -1 -20 2 0 8 9 14 20 6 11 7 20 2 20 -6
0 -12 -9 -15 -20z"/>
<path d="M26277 10367 c-3 -8 0 -21 8 -27 19 -15 27 3 11 25 -11 16 -14 16
-19 2z"/>
<path d="M26588 10312 c-4 -12 -2 -24 2 -27 13 -8 18 8 10 29 -6 19 -7 19 -12
-2z"/>
<path d="M26743 10303 c-3 -10 -8 -22 -11 -28 -3 -5 -1 -7 3 -2 5 4 17 -1 27
-10 15 -13 19 -14 16 -3 -2 8 5 14 17 14 14 0 19 -5 17 -19 -2 -19 -2 -19 9
-1 11 18 12 18 31 -5 15 -19 14 -15 -4 18 -19 35 -25 40 -38 29 -8 -7 -19 -12
-25 -11 -18 1 -35 16 -30 26 4 5 4 9 0 9 -3 0 -8 -8 -12 -17z"/>
<path d="M26645 10301 c-7 -12 12 -24 25 -16 11 7 4 25 -10 25 -5 0 -11 -4
-15 -9z"/>
<path d="M26695 10290 c3 -5 8 -10 11 -10 2 0 4 5 4 10 0 6 -5 10 -11 10 -5 0
-7 -4 -4 -10z"/>
<path d="M12513 14095 c-750 -85 -1385 -384 -1912 -899 -270 -265 -464 -522
-612 -810 l-66 -131 -7 87 c-32 464 -345 998 -774 1321 -217 163 -434 264
-688 319 -99 22 -101 22 -1681 25 l-1583 4 0 -3251 0 -3250 1445 0 c949 0
1479 4 1543 11 585 63 1101 378 1433 872 179 266 287 567 306 844 l6 92 59
-107 c338 -609 847 -1105 1435 -1401 594 -297 1282 -403 1960 -300 718 109
1409 483 1906 1034 680 754 985 1760 837 2762 -200 1351 -1191 2421 -2515
2718 -249 56 -358 67 -675 71 -207 2 -332 -1 -417 -11z m-4682 -1545 c234 -44
415 -306 395 -572 -18 -250 -183 -458 -396 -498 -30 -6 -243 -10 -506 -10
l-454 0 0 545 0 545 454 0 c261 0 476 -4 507 -10z m5192 -90 c740 -67 1319
-584 1479 -1320 19 -91 22 -134 22 -325 0 -191 -3 -234 -22 -325 -127 -587
-533 -1053 -1079 -1239 -781 -267 -1632 85 -1997 824 -120 242 -176 478 -176
740 0 610 327 1157 870 1458 179 99 449 176 665 190 22 1 57 3 78 5 21 2 93
-2 160 -8z m-3422 -1347 c-25 -200 -22 -597 6 -745 l6 -33 -38 45 c-68 80
-178 184 -270 253 -93 70 -290 177 -328 178 -12 0 12 10 53 23 162 48 427 212
544 335 16 17 31 29 33 27 2 -2 -1 -39 -6 -83z m-1719 -1013 c261 -80 410
-414 319 -711 -39 -125 -142 -259 -241 -313 -98 -54 -125 -56 -627 -56 l-463
0 0 550 0 550 474 0 c444 0 478 -1 538 -20z"/>
<path d="M12665 12094 c-411 -72 -768 -340 -945 -709 -45 -96 -93 -242 -111
-345 -20 -109 -17 -364 5 -470 112 -541 522 -945 1050 -1035 415 -70 833 63
1130 361 419 418 504 1063 208 1572 -194 332 -523 561 -901 626 -115 20 -325
20 -436 0z"/>
<path d="M19076 14100 c-400 -31 -732 -121 -1048 -281 -229 -117 -404 -246
-578 -425 -342 -352 -529 -748 -627 -1324 -16 -98 -18 -243 -20 -2079 -4
-2178 -8 -2022 59 -2158 39 -79 137 -187 212 -232 31 -18 87 -45 124 -60 67
-25 68 -25 424 -29 l356 -3 34 30 33 29 5 2154 c6 2350 1 2166 60 2360 111
369 415 653 806 753 130 34 227 45 382 45 229 0 419 -40 598 -124 123 -59 203
-114 301 -209 196 -191 311 -443 342 -751 8 -75 11 -688 11 -1940 0 -2026 -4
-1893 65 -2025 71 -135 191 -236 340 -288 l80 -27 343 -4 c251 -3 342 -1 342
8 0 6 5 8 10 5 6 -4 23 5 38 20 l27 27 5 2157 c6 2155 6 2156 27 2241 125 499
444 798 958 896 138 27 397 24 543 -4 459 -91 774 -363 906 -781 58 -183 59
-199 67 -951 8 -778 7 -740 18 -721 6 10 10 10 16 1 5 -8 14 -5 31 11 28 26
32 15 7 -15 -14 -16 -14 -18 -2 -8 9 6 19 8 23 4 4 -4 7 -2 6 3 -5 21 0 36 10
30 5 -3 8 -11 6 -18 -1 -7 -1 -9 1 -4 3 4 9 5 13 2 5 -3 14 4 20 15 6 11 16
20 22 20 6 0 6 -6 -3 -17 -7 -10 -9 -15 -5 -11 5 4 16 2 25 -5 14 -10 14 -10
3 5 -9 11 -10 18 -2 23 5 3 10 0 10 -7 0 -8 5 -6 11 5 5 9 15 17 21 17 6 0 6
-6 -2 -16 -8 -8 -9 -14 -4 -12 5 2 10 -1 11 -7 1 -5 -6 -9 -15 -7 -14 2 -15 1
-2 -7 9 -6 19 -6 26 0 14 11 38 -13 26 -27 -4 -4 1 -2 11 5 17 14 24 27 8 17
-17 -11 -32 19 -18 38 12 17 14 17 28 0 13 -16 12 -17 -6 -11 -17 6 -17 5 3
-11 19 -14 20 -20 10 -32 -11 -12 -11 -12 4 -1 10 7 15 18 11 25 -9 14 -14 46
-8 46 3 0 10 -10 16 -22 l10 -23 -5 22 c-2 13 0 26 5 29 5 3 10 -2 10 -10 1
-9 3 -20 4 -26 1 -5 3 -13 4 -16 0 -4 7 -1 15 5 10 9 16 9 21 1 5 -8 13 -6 26
6 10 9 19 13 19 7 0 -17 -37 -45 -45 -33 -8 12 -25 4 -25 -13 0 -8 3 -8 9 2 6
9 11 10 15 2 4 -6 13 -8 19 -4 7 4 17 8 22 8 6 0 11 6 11 13 4 32 6 36 14 17
7 -15 9 -16 9 -4 1 18 41 21 53 4 5 -6 8 -5 8 3 0 7 5 10 10 7 6 -4 8 -10 5
-15 -3 -5 0 -12 6 -16 7 -4 9 -3 5 4 -3 6 -2 13 4 17 5 3 10 -1 10 -9 0 -8 4
-17 9 -20 5 -4 7 4 4 16 -5 23 -5 23 10 3 15 -19 16 -19 22 -2 7 17 8 17 20 0
13 -17 14 -17 20 -1 4 10 11 15 17 12 5 -3 4 -12 -3 -20 -8 -10 -9 -18 -2 -25
7 -7 15 -4 25 10 8 12 18 18 21 14 4 -3 2 -12 -4 -19 -7 -8 -6 -14 2 -20 8 -4
9 -3 5 5 -4 6 0 14 9 17 12 5 13 9 5 14 -8 5 -7 9 4 13 10 4 16 1 16 -7 0 -7
6 -19 14 -25 8 -7 13 -21 11 -32 -2 -11 0 -17 6 -13 6 3 8 8 5 11 -3 3 1 15 9
27 8 11 15 30 14 41 0 13 -4 8 -10 -13 -6 -19 -14 -30 -20 -26 -8 4 -7 10 0
17 14 14 14 40 1 32 -6 -4 -8 -10 -5 -15 3 -5 0 -12 -6 -16 -9 -5 -10 0 -7 14
4 14 2 20 -4 15 -7 -4 -8 -1 -3 7 6 9 4 11 -5 5 -9 -6 -11 -4 -5 5 6 9 4 11
-5 5 -7 -4 -16 -2 -22 6 -7 10 -8 9 -4 -6 5 -18 5 -18 -7 -3 -12 15 -14 15
-25 0 -10 -15 -11 -15 -6 3 5 16 4 17 -5 5 -9 -13 -11 -13 -11 0 0 12 -2 13
-9 1 -5 -7 -11 -9 -13 -5 -3 5 -4 4 -2 -2 4 -18 -47 -9 -62 11 -10 14 -14 15
-14 4 -1 -10 -5 -9 -15 5 -11 14 -15 16 -15 5 0 -11 -2 -12 -9 0 -6 9 -11 10
-15 2 -4 -6 -2 -11 4 -11 6 0 8 -5 5 -11 -5 -6 -12 -4 -21 8 -13 17 -14 17 -8
-2 l7 -20 -17 20 -16 20 6 -20 c4 -15 3 -16 -4 -6 -5 7 -12 9 -14 5 -3 -5 -3
-2 -1 6 2 10 -2 8 -12 -4 -11 -14 -15 -16 -15 -5 0 12 -2 12 -10 -1 -8 -12
-10 -12 -11 5 l0 20 -9 -20 c-6 -13 -9 -15 -9 -5 0 8 3 22 8 30 6 8 7 18 4 24
-4 5 -12 -8 -19 -30 -13 -38 -13 -38 -7 -4 3 19 6 41 6 47 0 9 4 10 14 2 17
-15 17 -4 -2 25 -13 19 -13 23 -1 23 8 0 12 -6 8 -15 -3 -10 -1 -13 7 -8 6 4
11 4 10 -1 -3 -19 2 -34 10 -29 10 6 9 20 -4 49 -4 10 -5 21 -1 24 3 4 6 -1 6
-9 0 -9 6 -21 14 -27 8 -7 13 -20 12 -29 -2 -9 0 -26 5 -37 7 -18 8 -17 10 8
1 15 2 32 3 39 0 6 9 12 19 14 17 2 17 1 3 -15 -17 -19 -22 -66 -6 -56 5 3 7
12 4 19 -3 8 4 20 15 28 12 8 19 17 16 20 -3 2 1 5 9 5 13 0 13 -3 1 -20 -14
-20 -10 -51 6 -41 5 3 7 10 3 15 -3 6 2 9 12 7 11 -2 18 2 17 8 -1 7 8 20 20
30 22 19 22 19 5 -1 -14 -17 -14 -23 -3 -38 10 -15 14 -15 18 -3 3 8 14 13 24
11 10 -1 25 2 33 8 12 9 13 8 3 -2 -6 -7 -9 -20 -6 -27 3 -8 0 -14 -6 -14 -6
0 -11 -4 -11 -8 0 -5 7 -9 15 -9 9 0 15 10 16 26 1 25 2 25 9 -4 7 -28 14 -19
11 15 0 10 1 11 5 2 3 -6 11 -9 17 -6 8 5 8 2 0 -7 -21 -21 -15 -34 7 -14 11
10 17 21 15 26 -3 4 -1 10 4 13 13 8 8 -19 -7 -37 -8 -9 -9 -18 -4 -21 6 -3
13 2 17 11 5 16 8 15 25 -7 23 -29 27 -15 6 16 -12 17 -13 21 -1 21 8 0 14 -3
13 -6 -3 -32 20 -40 35 -11 5 10 6 8 3 -6 -2 -12 0 -28 5 -35 6 -10 9 -7 10
11 1 14 0 29 -1 35 -1 5 2 7 6 3 4 -4 14 -2 23 4 12 10 12 8 -1 -8 -19 -22
-25 -59 -8 -49 6 4 8 10 5 14 -2 5 4 16 15 26 11 10 21 15 21 12 1 -4 3 -11 4
-17 1 -5 3 -13 4 -17 1 -5 6 -1 12 7 9 13 10 12 5 -2 -3 -10 -1 -20 4 -23 10
-6 13 3 13 37 0 10 3 15 8 13 4 -3 5 -17 3 -32 -4 -22 -3 -24 10 -14 8 7 12
20 9 29 -3 9 4 5 14 -11 11 -15 23 -24 26 -20 4 3 -1 16 -10 27 -14 15 -14 18
-2 8 21 -15 32 -4 16 17 -11 14 -10 14 6 2 13 -10 15 -17 6 -27 -6 -8 -8 -14
-3 -14 4 0 3 -5 -4 -12 -7 -7 -12 -16 -12 -21 0 -14 21 4 30 27 7 17 9 18 9 3
1 -10 6 -15 11 -12 6 4 8 10 5 15 -3 5 0 12 7 16 7 4 10 4 6 -1 -4 -4 -4 -13
1 -19 14 -18 19 -53 10 -67 -6 -9 -9 -1 -9 24 0 21 -4 36 -9 33 -4 -3 -6 -17
-3 -31 2 -14 -2 -33 -9 -43 -13 -15 -12 -16 3 -4 14 11 18 10 27 -5 9 -17 10
-17 10 2 0 11 2 34 4 50 2 17 -1 37 -7 45 -9 13 -9 13 5 3 9 -7 19 -9 23 -5 4
4 7 2 5 -3 -1 -6 3 -21 9 -35 11 -24 12 -24 9 9 -1 25 2 34 15 36 10 2 16 -2
15 -8 -1 -6 3 -11 8 -12 6 0 16 -4 24 -9 11 -7 13 -5 7 10 -6 15 -5 16 5 7 9
-10 10 -15 0 -27 -7 -9 -8 -17 -2 -20 5 -3 11 -1 13 5 2 7 4 -6 5 -27 l1 -39
-13 30 c-7 17 -14 23 -14 15 -1 -13 -2 -13 -11 0 -9 13 -10 13 -10 0 0 -13 -1
-13 -10 0 -9 13 -10 13 -10 0 0 -13 -1 -13 -10 0 -9 13 -10 13 -10 0 0 -13 -1
-13 -10 0 -7 12 -9 10 -7 -7 1 -17 4 -19 14 -11 8 6 13 7 13 0 0 -5 -7 -15
-15 -22 -16 -13 -18 -10 -28 35 -4 15 -5 13 -6 -7 0 -15 4 -30 9 -33 6 -4 8
-10 5 -15 -3 -4 3 -14 13 -21 15 -12 16 -12 5 2 -20 25 5 44 30 22 10 -10 18
-13 17 -8 -5 21 0 36 9 30 6 -3 8 -15 6 -27 -3 -11 -1 -17 3 -14 4 4 7 12 7
17 0 5 5 10 10 11 6 1 11 -23 13 -53 8 -148 10 -13 11 666 1 742 -5 935 -35
1140 -137 957 -732 1648 -1647 1911 -259 75 -517 108 -827 107 -481 -1 -872
-88 -1257 -282 -201 -101 -368 -218 -520 -364 l-91 -88 -49 49 c-305 309 -755
540 -1226 631 -247 48 -590 69 -821 51z m5278 -3476 c3 -8 2 -12 -4 -9 -6 3
-10 10 -10 16 0 14 7 11 14 -7z m76 -20 c0 -8 -19 -13 -24 -6 -3 5 1 9 9 9 8
0 15 -2 15 -3z m79 -38 c-11 -19 -16 -37 -11 -40 6 -3 12 3 15 13 4 16 30 22
45 11 15 -13 77 23 67 40 -2 4 3 7 11 7 9 0 1 -15 -22 -38 -21 -21 -35 -41
-32 -45 4 -3 19 8 35 26 28 31 29 31 43 14 14 -17 13 -18 -1 -6 -13 10 -19 10
-28 -2 -9 -10 -7 -17 6 -27 15 -12 16 -12 10 4 -4 10 -3 16 2 13 4 -3 8 -20 8
-38 1 -27 -1 -29 -7 -13 -8 20 -11 18 -14 -7 0 -7 -14 -13 -30 -13 -16 -1 -34
-9 -42 -20 -8 -10 -15 -16 -15 -12 -1 4 -2 11 -3 16 -2 17 -16 24 -28 14 -7
-6 -23 -9 -35 -7 -15 3 -27 -3 -35 -16 -9 -14 -16 -16 -25 -8 -7 6 -13 15 -13
20 0 6 7 5 16 -2 12 -11 15 -11 12 0 -2 8 3 15 10 16 6 1 18 2 25 3 9 1 9 3
-1 10 -11 6 -10 10 3 15 14 5 16 2 12 -14 -3 -11 -1 -17 4 -14 16 9 6 37 -13
40 -10 1 -18 -1 -18 -5 0 -12 -33 -10 -49 3 -10 7 -13 8 -8 0 3 -6 0 -11 -8
-11 -8 0 -11 5 -8 11 3 6 0 6 -7 -1 -10 -9 -10 -15 4 -28 9 -9 16 -21 16 -27
0 -6 -3 -8 -7 -5 -3 4 -16 -2 -28 -13 -20 -19 -23 -19 -36 -4 -14 17 -21 137
-7 128 4 -3 9 0 9 5 1 6 2 15 3 20 0 5 5 13 9 18 5 4 7 3 5 -3 -1 -7 2 -12 7
-12 6 0 9 4 7 10 -1 5 3 6 9 3 8 -5 8 -10 0 -18 -18 -18 -12 -31 7 -16 15 13
16 12 4 -3 -7 -9 -9 -19 -4 -22 5 -3 15 7 21 22 l13 27 23 -27 c20 -24 24 -25
31 -10 4 9 6 21 5 26 -1 5 6 3 15 -5 16 -12 17 -12 11 3 -4 11 -2 17 6 15 7
-1 11 4 9 11 -1 8 2 11 7 7 6 -3 2 -19 -10 -39z m75 36 c3 -5 -1 -9 -9 -9 -8
0 -12 4 -9 9 3 4 7 8 9 8 2 0 6 -4 9 -8z m187 -9 c13 -16 12 -17 -3 -4 -17 13
-22 21 -14 21 2 0 10 -8 17 -17z m40 0 c13 -16 12 -17 -3 -4 -17 13 -22 21
-14 21 2 0 10 -8 17 -17z m-354 -20 c0 -9 -4 -10 -14 -2 -7 6 -13 12 -13 14 0
1 6 2 13 2 8 0 14 -6 14 -14z m104 0 c12 -16 12 -17 -2 -6 -9 7 -20 9 -24 5
-5 -4 -5 -1 -1 6 9 16 11 15 27 -5z m49 13 c0 -2 -8 -10 -17 -17 -16 -13 -17
-12 -4 4 13 16 21 21 21 13z m160 -22 c0 -8 -19 -13 -24 -6 -3 5 1 9 9 9 8 0
15 -2 15 -3z m110 2 c0 -2 -8 -10 -17 -17 -16 -13 -17 -12 -4 4 13 16 21 21
21 13z m100 -12 c0 -8 -19 -13 -24 -6 -3 5 1 9 9 9 8 0 15 -2 15 -3z m125 -26
c5 4 5 1 1 -6 -6 -10 -11 -10 -22 -1 -8 6 -14 14 -14 16 0 3 6 0 13 -6 8 -6
18 -7 22 -3z m116 -35 c13 -16 12 -17 -3 -4 -17 13 -22 21 -14 21 2 0 10 -8
17 -17z m-766 -16 c3 -4 2 -5 -2 -2 -3 3 -12 0 -20 -6 -10 -9 -13 -8 -13 2 0
12 -2 12 -9 1 -7 -11 -9 -11 -14 0 -4 11 3 14 24 13 16 -1 31 -4 34 -8z m407
-32 c3 0 9 -3 13 -7 6 -5 -19 -4 -35 2 -3 1 -9 2 -13 1 -5 -1 -6 3 -2 9 3 6
12 7 18 3 7 -4 15 -8 19 -8z m-142 -11 c0 -8 -19 -13 -24 -6 -3 5 1 9 9 9 8 0
15 -2 15 -3z m233 -9 c-3 -9 -8 -14 -10 -11 -3 3 -2 9 2 15 9 16 15 13 8 -4z
m76 2 c9 4 13 3 9 -1 -3 -4 -13 -9 -22 -10 -9 -1 -23 -11 -31 -22 -8 -10 -15
-14 -15 -8 0 6 3 14 8 18 4 4 8 12 8 17 1 5 2 12 3 16 0 4 6 2 12 -4 6 -6 19
-9 28 -6z m491 -75 c0 -12 -3 -12 -15 -2 -12 10 -16 9 -21 -4 -3 -9 -10 -14
-15 -11 -4 3 -6 11 -3 18 7 18 54 17 54 -1z m-3833 -1517 c0 -8 -4 -12 -9 -9
-5 3 -6 10 -3 15 9 13 12 11 12 -6z m98 -124 c3 -5 2 -12 -3 -15 -5 -3 -9 1
-9 9 0 17 3 19 12 6z m2 -81 c-4 -28 -23 -45 -32 -31 -3 7 -1 10 6 9 7 -2 14
3 15 10 1 6 2 17 3 22 0 6 3 10 6 10 3 0 3 -9 2 -20z m-31 -85 c-1 -8 -5 -17
-8 -21 -5 -4 -4 16 1 34 3 9 9 -1 7 -13z m29 6 c3 -5 2 -12 -3 -15 -5 -3 -9 1
-9 9 0 17 3 19 12 6z m-18 -46 c0 -8 -4 -12 -9 -9 -5 3 -6 10 -3 15 9 13 12
11 12 -6z m-18 -19 c9 -11 9 -16 -1 -22 -7 -4 -10 -4 -6 1 4 4 3 14 -3 22 -6
7 -9 13 -6 13 2 0 10 -6 16 -14z m38 -51 c0 -8 -4 -12 -9 -9 -5 3 -6 10 -3 15
9 13 12 11 12 -6z m-20 -50 c0 -8 -4 -12 -9 -9 -5 3 -6 10 -3 15 9 13 12 11
12 -6z m19 -30 c-1 -8 -5 -17 -8 -21 -5 -4 -4 16 1 34 3 9 9 -1 7 -13z m-16
-99 c0 -2 -8 -10 -17 -17 -16 -13 -17 -12 -4 4 13 16 21 21 21 13z m0 -240 c0
-2 -8 -10 -17 -17 -16 -13 -17 -12 -4 4 13 16 21 21 21 13z"/>
<path d="M24335 10554 c-4 -11 -10 -30 -12 -43 -3 -18 0 -22 11 -18 9 4 16 2
16 -3 0 -5 -8 -11 -17 -13 -15 -4 -16 -5 -2 -6 20 -1 55 49 42 58 -5 3 -14 14
-20 25 -10 18 -10 18 -18 0z m23 -40 c-4 -11 -28 -14 -28 -4 0 8 22 20 28 14
2 -1 2 -6 0 -10z"/>
<path d="M24402 10545 c-7 -15 -10 -30 -7 -33 3 -3 5 1 5 8 0 9 5 8 13 -5 8
-10 19 -15 25 -11 39 24 81 4 68 -31 -11 -27 8 -2 21 28 6 14 8 31 3 38 -5 9
-9 6 -13 -10 -5 -18 -9 -20 -21 -10 -8 7 -13 20 -10 29 3 11 -1 8 -12 -6 l-17
-23 -22 26 -21 27 -12 -27z m25 -2 c-4 -3 -2 -12 4 -20 7 -8 8 -13 1 -13 -12
0 -23 26 -15 34 4 3 9 6 11 6 3 0 2 -3 -1 -7z"/>
<path d="M24542 10533 c0 -10 -2 -25 -6 -34 -4 -9 0 -21 10 -29 14 -12 17 -11
26 4 8 15 12 16 19 5 7 -11 9 -9 9 5 0 20 0 20 15 0 13 -16 14 -16 9 -1 -4 10
-1 17 6 17 10 0 10 3 0 15 -11 14 -14 13 -25 -1 -15 -21 -39 -9 -30 14 3 9 3
13 -1 9 -4 -4 -13 -2 -20 4 -10 8 -13 6 -12 -8z m20 -55 c-13 -13 -24 5 -16
27 7 16 8 16 17 0 6 -11 6 -20 -1 -27z"/>
<path d="M24350 10461 c-8 -6 -18 -7 -22 -5 -4 3 -5 -2 -1 -11 4 -12 8 -13 13
-5 6 9 9 9 13 -1 4 -10 6 -8 6 4 1 10 6 15 11 12 6 -3 10 -1 10 4 0 13 -10 14
-30 2z"/>
<path d="M29379 14033 c-13 -16 -12 -17 4 -4 9 7 17 15 17 17 0 8 -8 3 -21
-13z"/>
<path d="M29281 14026 c-7 -8 -8 -17 -3 -20 6 -3 12 3 15 14 6 24 4 25 -12 6z"/>
<path d="M29365 14001 c-3 -5 -2 -12 3 -15 5 -3 9 1 9 9 0 17 -3 19 -12 6z"/>
<path d="M32253 14000 c-24 -10 -43 -39 -43 -68 0 -10 127 -207 281 -438 155
-230 586 -871 957 -1424 371 -553 686 -1027 698 -1055 74 -161 72 -360 -5
-515 -15 -30 -452 -687 -971 -1460 -519 -773 -948 -1417 -954 -1432 -12 -33 6
-74 38 -85 12 -3 256 -6 542 -5 571 2 604 4 743 62 39 16 97 46 128 66 134 88
167 132 742 989 299 446 560 827 580 848 49 51 141 96 217 103 105 11 211 -31
284 -112 19 -21 278 -401 575 -844 572 -852 609 -902 739 -985 32 -20 90 -50
128 -66 138 -57 167 -59 753 -59 522 0 535 0 555 20 32 32 24 66 -38 159 -728
1077 -1856 2759 -1875 2797 -38 76 -58 166 -58 263 1 103 20 184 65 271 18 36
249 387 514 780 1160 1725 1406 2096 1410 2120 2 15 -4 36 -16 50 l-20 25
-549 0 c-503 0 -554 -2 -618 -19 -153 -40 -295 -125 -397 -234 -30 -33 -298
-421 -594 -863 -312 -466 -560 -825 -589 -855 -118 -119 -312 -131 -449 -26
-52 39 -73 70 -843 1217 -163 242 -316 465 -340 495 -96 119 -248 216 -409
261 -77 22 -94 23 -619 26 -314 1 -549 -1 -562 -7z"/>
<path d="M140 10755 l0 -3245 900 0 900 0 0 1260 0 1260 568 -2 567 -3 0
-1255 0 -1255 878 -3 877 -2 0 3245 0 3245 -880 0 -880 0 0 -1210 0 -1210
-565 0 -565 0 0 1210 0 1210 -900 0 -900 0 0 -3245z"/>
<path d="M29279 13973 c-1 -5 0 -20 1 -35 1 -14 -3 -29 -8 -32 -6 -3 -8 -15
-5 -26 3 -10 -4 -32 -16 -48 -16 -23 -18 -32 -8 -42 9 -9 9 -11 0 -6 -14 8
-27 -10 -14 -19 10 -5 44 37 47 59 8 59 15 156 10 156 -3 0 -6 -3 -7 -7z"/>
<path d="M29341 13846 c-9 -11 -9 -16 1 -22 7 -4 10 -4 6 1 -4 4 -3 14 3 22 6
7 9 13 6 13 -2 0 -10 -6 -16 -14z"/>
<path d="M29345 13661 c-3 -5 -2 -12 3 -15 5 -3 9 1 9 9 0 17 -3 19 -12 6z"/>
<path d="M29264 13636 c-8 -17 -8 -27 0 -38 9 -12 12 -8 12 23 1 22 1 39 0 39
0 0 -6 -11 -12 -24z"/>
<path d="M29270 13561 c0 -6 4 -13 10 -16 6 -3 7 1 4 9 -7 18 -14 21 -14 7z"/>
<path d="M29356 13531 c-3 -5 2 -15 12 -22 15 -12 16 -12 5 2 -7 9 -10 19 -6
22 3 4 4 7 0 7 -3 0 -8 -4 -11 -9z"/>
<path d="M29281 13514 c0 -11 3 -14 6 -6 3 7 2 16 -1 19 -3 4 -6 -2 -5 -13z"/>
<path d="M29374 13446 c1 -8 5 -18 8 -22 4 -3 5 1 4 10 -1 8 -5 18 -8 22 -4 3
-5 -1 -4 -10z"/>
<path d="M29411 13307 c-8 -11 -6 -18 12 -33 22 -19 22 -19 5 2 -14 16 -15 23
-6 32 7 7 9 12 6 12 -3 0 -11 -6 -17 -13z"/>
<path d="M31834 13295 c0 -13 3 -22 7 -19 8 4 6 30 -2 38 -3 3 -5 -5 -5 -19z"/>
<path d="M29455 13201 c-3 -5 -2 -12 3 -15 5 -3 9 1 9 9 0 17 -3 19 -12 6z"/>
<path d="M31833 13103 c-27 -38 -55 -93 -46 -93 4 0 -5 -12 -20 -28 -17 -18
-23 -32 -18 -41 7 -10 18 0 45 40 22 33 32 57 26 63 -6 6 -5 16 1 28 8 15 14
17 24 8 8 -7 15 -7 19 -1 4 5 2 12 -3 16 -6 3 -8 12 -4 20 8 23 -1 18 -24 -12z
m-32 -86 c-10 -9 -11 -8 -5 6 3 10 9 15 12 12 3 -3 0 -11 -7 -18z"/>
<path d="M29415 13101 c3 -5 0 -13 -6 -16 -7 -5 0 -19 20 -39 17 -18 28 -35
25 -39 -4 -4 -2 -13 4 -20 7 -7 13 -23 15 -35 4 -25 17 -42 17 -21 0 7 8 2 17
-11 10 -14 18 -28 18 -32 0 -5 3 -8 8 -8 4 0 7 2 7 5 0 46 -1 49 -9 37 -7 -11
-10 -10 -15 3 -3 9 -4 21 -1 25 3 5 -4 7 -16 5 -16 -3 -18 -1 -10 9 8 10 8 16
-3 25 -8 7 -26 36 -41 66 -14 30 -29 55 -31 55 -3 0 -3 -4 1 -9z"/>
<path d="M31684 13026 c1 -8 5 -18 8 -22 4 -3 5 1 4 10 -1 8 -5 18 -8 22 -4 3
-5 -1 -4 -10z"/>
<path d="M31593 12915 c0 -8 4 -12 9 -9 5 3 6 10 3 15 -9 13 -12 11 -12 -6z"/>
<path d="M31699 12898 c-5 -18 -6 -38 -1 -34 7 8 12 36 6 36 -2 0 -4 -1 -5 -2z"/>
<path d="M29566 12845 c-3 -8 -1 -17 3 -20 5 -3 11 2 15 10 3 8 1 17 -3 20 -5
3 -11 -2 -15 -10z"/>
<path d="M29602 12807 c-8 -9 -9 -18 -3 -21 5 -4 13 -2 16 4 5 8 11 7 21 -1 7
-6 11 -15 8 -21 -8 -13 16 -39 30 -31 6 3 3 -3 -6 -14 -24 -27 -23 -40 1 -19
17 16 26 57 11 53 -3 -1 -19 13 -36 32 -26 29 -31 31 -42 18z"/>
<path d="M29766 12791 c-3 -5 2 -15 12 -22 15 -12 16 -12 5 2 -7 9 -10 19 -6
22 3 4 4 7 0 7 -3 0 -8 -4 -11 -9z"/>
<path d="M31479 12783 c-13 -16 -12 -17 4 -4 9 7 17 15 17 17 0 8 -8 3 -21
-13z"/>
<path d="M29815 12750 c-4 -6 -11 -8 -16 -5 -16 10 -10 -2 9 -16 9 -7 14 -9
10 -5 -4 5 -3 15 3 23 6 7 9 13 6 13 -3 0 -9 -5 -12 -10z"/>
<path d="M31530 12706 c0 -9 0 -18 0 -21 0 -3 3 -5 7 -5 10 -1 12 29 2 36 -5
3 -9 -2 -9 -10z"/>
<path d="M29875 12683 c2 -10 4 -19 5 -20 5 -6 8 -24 10 -60 l3 -38 6 40 c4
26 2 45 -5 55 -7 8 -13 19 -12 23 0 5 -3 11 -5 14 -3 3 -4 -3 -2 -14z"/>
<path d="M31316 12658 c3 -5 10 -6 15 -3 13 9 11 12 -6 12 -8 0 -12 -4 -9 -9z"/>
<path d="M31471 12644 c6 -7 16 -11 21 -8 11 7 3 17 -18 20 -12 2 -13 -1 -3
-12z"/>
<path d="M30343 12493 c7 -11 -20 -40 -32 -36 -3 1 -4 -11 -2 -28 2 -23 -1
-29 -10 -23 -9 5 -10 2 -6 -10 4 -9 3 -15 -2 -11 -5 3 -12 -1 -15 -7 -3 -7 -3
-2 1 12 5 23 5 24 -12 10 -11 -8 -16 -10 -12 -3 4 6 3 14 -3 18 -24 15 -7 -24
22 -51 17 -16 29 -22 26 -14 -3 9 0 24 8 35 8 10 14 28 14 39 0 11 9 30 21 42
15 16 17 24 8 29 -7 5 -10 4 -6 -2z"/>
<path d="M30411 12476 c-9 -10 -8 -16 4 -26 8 -7 12 -16 9 -21 -3 -5 -14 1
-24 13 -17 21 -19 21 -25 6 -4 -10 -11 -15 -17 -12 -5 3 -2 15 9 27 14 18 13
17 -10 -2 -15 -14 -25 -26 -22 -29 2 -3 0 -13 -6 -24 -13 -24 0 -47 13 -23 9
15 13 14 41 -12 16 -15 27 -23 23 -16 -3 6 -1 15 5 18 5 4 8 14 5 24 -5 14 -4
14 7 -1 8 -10 16 -16 19 -13 2 3 15 -6 28 -20 l24 -25 22 21 c24 22 54 18 35
-5 -6 -7 -8 -16 -5 -19 4 -4 15 4 25 17 20 25 45 28 58 7 6 -10 10 -9 14 2 6
16 23 17 44 4 6 -4 14 -3 17 2 9 13 32 8 55 -13 12 -11 21 -14 26 -7 6 10 -1
15 -17 12 -4 0 -5 6 -1 15 4 11 8 12 13 4 4 -7 10 -8 12 -4 3 5 4 4 2 -3 -5
-22 9 -22 26 0 13 16 16 27 8 40 -5 10 -7 25 -4 33 3 9 1 12 -4 9 -6 -3 -10
-13 -10 -21 0 -8 -5 -12 -10 -9 -6 4 -8 10 -5 15 3 5 1 11 -4 14 -10 7 -9 -13
1 -29 4 -6 3 -17 -1 -24 -6 -9 -11 -4 -16 16 -5 15 -8 31 -7 34 0 3 -5 6 -13
6 -12 0 -11 -4 1 -21 8 -11 14 -27 14 -36 -1 -9 -6 -5 -15 10 -7 14 -17 25
-22 25 -4 0 -15 4 -23 10 -12 7 -13 6 -3 -7 7 -8 10 -18 6 -21 -3 -4 -12 1
-20 11 -13 15 -13 14 -3 -6 7 -13 10 -26 7 -28 -8 -8 -34 41 -31 59 1 11 -1
16 -4 12 -4 -4 -7 -15 -7 -26 0 -10 -4 -18 -10 -16 -5 1 -8 7 -7 12 2 5 0 7
-4 3 -10 -11 -35 12 -27 25 4 6 1 7 -6 3 -9 -6 -9 -12 3 -25 14 -16 14 -19 0
-37 -15 -18 -15 -18 -9 3 3 12 1 24 -4 28 -7 4 -9 -1 -5 -12 5 -16 3 -15 -12
2 -13 16 -16 17 -11 3 3 -10 2 -20 -3 -23 -10 -6 -13 3 -13 36 0 9 -6 16 -13
16 -10 0 -11 -4 -3 -14 6 -7 8 -13 5 -13 -4 0 -2 -9 4 -20 6 -12 7 -20 1 -20
-5 0 -14 12 -19 28 -6 16 -11 20 -11 10 -1 -9 -6 -20 -11 -23 -11 -7 -9 23 2
41 4 6 1 11 -6 11 -7 0 -13 -7 -13 -16 0 -30 -3 -41 -11 -41 -4 0 -7 18 -6 40
0 22 -2 37 -5 34 -3 -3 -6 -20 -6 -36 0 -19 -6 -33 -15 -36 -13 -4 -13 -3 -2
10 9 11 10 18 2 23 -6 3 -8 11 -4 16 3 5 2 9 -3 8 -20 -3 -25 2 -13 16 7 8 10
15 7 15 -2 0 -10 -6 -16 -14z m-7 -65 c-3 -3 -9 0 -13 8 -6 10 -10 9 -14 -4
-4 -9 -3 -14 1 -11 15 9 31 -9 22 -24 -8 -13 -10 -12 -10 3 0 10 -5 15 -10 12
-6 -3 -13 1 -16 10 -6 14 -8 14 -21 -2 -13 -17 -13 -16 -4 3 6 12 7 25 3 30
-4 5 1 2 10 -5 15 -11 19 -11 24 4 7 17 8 17 21 0 7 -10 10 -21 7 -24z m355
-36 c1 -5 -3 -5 -7 2 -8 12 -29 13 -49 0 -6 -4 -14 -3 -17 2 -7 10 -25 9 -43
-2 -6 -4 -14 -3 -18 3 -4 6 -11 8 -16 4 -6 -3 -5 3 3 15 11 19 14 19 24 6 10
-14 12 -14 18 1 5 14 9 13 24 -6 l18 -22 18 27 19 28 13 -24 c7 -13 13 -28 13
-34z m64 12 c-3 -5 -10 -4 -15 1 -6 6 -7 16 -3 22 6 9 9 9 16 -1 4 -7 5 -17 2
-22z m-303 -11 c-17 -17 -38 -14 -57 7 -16 19 -16 20 0 8 14 -11 17 -11 17 0
0 8 6 6 16 -7 8 -10 13 -13 9 -6 -9 18 5 38 16 21 4 -8 4 -18 -1 -23z m60 0
c-15 -15 -33 4 -19 20 10 12 14 12 20 2 5 -7 4 -17 -1 -22z"/>
<path d="M30054 12465 c3 -21 16 -31 16 -12 0 9 -4 18 -9 21 -5 4 -8 -1 -7 -9z"/>
<path d="M30124 12437 c3 -23 34 -59 41 -48 3 6 3 11 -1 11 -3 0 -1 7 6 16 8
8 9 14 4 12 -5 -1 -19 3 -31 10 -17 9 -21 9 -19 -1z"/>
<path d="M24725 10510 c-4 -6 -10 -8 -14 -6 -4 3 -8 -4 -8 -15 -1 -10 2 -19 8
-19 5 0 12 0 17 0 4 0 7 11 8 25 1 27 -1 31 -11 15z m2 -25 c0 -8 -4 -12 -9
-9 -5 3 -6 10 -3 15 9 13 12 11 12 -6z"/>
<path d="M24799 10518 c-6 -12 -5 -46 2 -43 4 3 7 14 6 25 -1 18 -5 25 -8 18z"/>
<path d="M24858 10496 c-10 -7 -15 -16 -11 -19 3 -4 13 -1 21 6 9 6 13 7 10 2
-9 -14 6 -38 25 -41 13 -2 20 8 38 50 2 5 -4 10 -13 12 -12 1 -21 -8 -27 -29
-6 -21 -10 -25 -10 -12 -2 34 -14 45 -33 31z m65 -21 c-3 -9 -8 -14 -10 -11
-3 3 -2 9 2 15 9 16 15 13 8 -4z"/>
<path d="M25183 10468 c-4 -7 -8 -15 -9 -18 0 -3 -4 -13 -9 -23 -6 -15 -10
-16 -16 -5 -7 10 -9 8 -9 -7 -1 -15 -5 -11 -15 13 -16 36 -20 39 -29 16 -3 -8
-2 -12 4 -9 15 9 30 -37 17 -53 -6 -7 -6 -12 -1 -11 21 4 26 -2 13 -18 -12
-16 -11 -16 8 0 15 14 23 15 28 6 6 -8 14 -5 27 12 11 13 18 17 15 8 -3 -9 1
-16 8 -16 7 0 11 6 8 14 -3 7 -3 13 1 13 6 0 37 -57 35 -66 0 -3 2 -8 5 -11 8
-9 -1 33 -13 55 -8 15 -7 23 6 33 14 12 15 11 10 -6 -4 -11 -2 -27 3 -35 7
-11 10 -11 10 -2 0 7 5 10 10 7 8 -5 7 -12 -2 -23 -9 -13 -7 -12 9 2 12 10 23
28 25 40 3 18 4 18 10 4 4 -10 -1 -28 -13 -45 -14 -18 -10 -16 10 7 30 33 38
59 24 73 -3 4 -14 0 -24 -9 -16 -15 -19 -14 -32 11 l-14 28 -15 -22 c-12 -16
-17 -19 -21 -9 -4 10 -6 10 -6 -1 -1 -8 -11 -1 -23 15 -13 16 -22 32 -20 36 3
12 -6 9 -15 -4z m59 -60 c5 1 7 -2 4 -7 -4 -5 -15 -8 -26 -6 -12 2 -26 -4 -34
-16 -15 -21 -33 -10 -21 14 4 6 0 4 -8 -5 -8 -10 -17 -15 -20 -12 -3 3 9 21
26 40 l32 34 19 -23 c10 -12 23 -21 28 -19z m68 -30 c0 -11 -4 -17 -10 -13 -5
3 -6 13 -3 23 4 13 2 13 -10 -3 -9 -11 -17 -15 -17 -9 0 5 5 15 12 22 9 9 9
12 0 12 -7 0 -12 5 -12 12 0 6 9 3 20 -7 11 -10 20 -27 20 -37z m37 20 c2 -17
0 -19 -7 -8 -5 8 -6 18 -4 22 8 12 10 10 11 -14z"/>
<path d="M25185 10430 c-3 -5 -8 -20 -10 -31 -4 -20 -3 -20 14 -5 10 9 21 13
26 9 4 -5 2 2 -4 15 -13 25 -17 27 -26 12z m6 -23 c-10 -9 -11 -8 -5 6 3 10 9
15 12 12 3 -3 0 -11 -7 -18z"/>
<path d="M25050 10463 c0 -6 8 -17 18 -24 16 -13 16 -13 2 6 -8 11 -16 22 -17
24 -2 2 -3 0 -3 -6z"/>
<path d="M25453 10437 c4 -10 7 -24 7 -31 0 -7 11 -12 24 -12 14 0 23 5 22 13
-1 8 -6 13 -12 12 -5 0 -8 -5 -6 -11 1 -5 -2 -7 -8 -3 -6 3 -8 10 -5 15 3 4
-3 14 -12 21 -15 12 -16 12 -10 -4z"/>
<path d="M25414 10415 c3 -21 16 -31 16 -12 0 9 -4 18 -9 21 -5 4 -8 -1 -7 -9z"/>
<path d="M24797 10406 c-4 -9 -12 -13 -20 -10 -8 3 -20 -2 -27 -10 -7 -9 -17
-13 -23 -9 -6 4 -7 1 -3 -6 6 -9 12 -9 25 3 21 19 35 21 25 4 -4 -7 4 -3 17 9
12 12 20 25 17 28 -3 3 -8 -1 -11 -9z"/>
<path d="M24643 10395 c0 -8 4 -12 9 -9 5 3 6 10 3 15 -9 13 -12 11 -12 -6z"/>
<path d="M24816 10393 c-6 -14 -5 -15 5 -6 7 7 10 15 7 18 -3 3 -9 -2 -12 -12z"/>
<path d="M25977 10403 c-12 -12 -7 -19 12 -19 15 0 17 3 9 13 -12 15 -13 15
-21 6z"/>
<path d="M24920 10389 c0 -5 -4 -7 -10 -4 -14 9 -12 -1 3 -13 10 -8 13 -6 14
9 1 10 0 19 -3 19 -2 0 -4 -5 -4 -11z"/>
<path d="M24315 10381 c-3 -5 -2 -12 3 -15 5 -3 9 1 9 9 0 17 -3 19 -12 6z"/>
<path d="M24839 10388 c-5 -18 -6 -38 -1 -34 7 8 12 36 6 36 -2 0 -4 -1 -5 -2z"/>
<path d="M24943 10371 c0 -11 5 -18 9 -15 4 3 5 11 1 19 -7 21 -12 19 -10 -4z"/>
<path d="M24880 10376 c0 -2 8 -10 18 -17 15 -13 16 -12 3 4 -13 16 -21 21
-21 13z"/>
<path d="M25030 10376 c0 -2 7 -7 16 -10 8 -3 12 -2 9 4 -6 10 -25 14 -25 6z"/>
<path d="M24646 10358 c3 -5 10 -6 15 -3 13 9 11 12 -6 12 -8 0 -12 -4 -9 -9z"/>
<path d="M24703 10355 c0 -8 4 -12 9 -9 5 3 6 10 3 15 -9 13 -12 11 -12 -6z"/>
<path d="M24796 10358 c3 -5 10 -6 15 -3 13 9 11 12 -6 12 -8 0 -12 -4 -9 -9z"/>
<path d="M25973 10348 c2 -15 6 -30 10 -34 4 -4 1 -14 -6 -23 -10 -14 -10 -14
5 -3 17 14 17 23 0 62 l-11 25 2 -27z"/>
<path d="M24965 10351 c-3 -5 -2 -12 3 -15 5 -3 9 1 9 9 0 17 -3 19 -12 6z"/>
<path d="M25019 10343 c-13 -16 -12 -17 4 -4 9 7 17 15 17 17 0 8 -8 3 -21
-13z"/>
<path d="M25145 10341 c-3 -5 -2 -12 3 -15 5 -3 9 1 9 9 0 17 -3 19 -12 6z"/>
<path d="M25216 10338 c3 -5 10 -6 15 -3 13 9 11 12 -6 12 -8 0 -12 -4 -9 -9z"/>
<path d="M25365 10340 c-4 -6 -10 -8 -15 -5 -5 3 -11 1 -14 -4 -8 -13 22 -7
36 7 7 7 9 12 6 12 -4 0 -10 -5 -13 -10z"/>
<path d="M27075 10230 c-4 -6 -12 -7 -18 -4 -7 4 -8 3 -4 -1 13 -15 37 -14 37
1 0 16 -6 18 -15 4z"/>
<path d="M26726 10208 c3 -5 10 -6 15 -3 13 9 11 12 -6 12 -8 0 -12 -4 -9 -9z"/>
<path d="M26845 10180 c10 -11 20 -20 23 -20 3 0 -3 9 -13 20 -10 11 -20 20
-23 20 -3 0 3 -9 13 -20z"/>
<path d="M26915 10171 c-3 -5 -2 -12 3 -15 5 -3 9 1 9 9 0 17 -3 19 -12 6z"/>
<path d="M26985 10151 c-3 -5 -2 -12 3 -15 5 -3 9 1 9 9 0 17 -3 19 -12 6z"/>
<path d="M27121 10126 c-9 -11 -9 -16 1 -22 7 -4 10 -4 6 1 -4 4 -3 14 3 22 6
7 9 13 6 13 -2 0 -10 -6 -16 -14z"/>
<path d="M27620 9205 c13 -14 26 -25 28 -25 3 0 -5 11 -18 25 -13 14 -26 25
-28 25 -3 0 5 -11 18 -25z"/>
<path d="M29136 8708 c4 -28 3 -30 -5 -11 -7 15 -17 21 -31 18 -11 -2 -20 0
-20 6 0 5 -5 9 -11 9 -8 0 -8 -4 -1 -13 9 -10 8 -19 -3 -35 -11 -15 -12 -23
-4 -28 7 -4 9 -3 6 2 -3 5 4 21 15 34 16 20 19 21 13 5 -4 -11 -8 -24 -9 -30
-1 -5 -5 -15 -9 -22 -4 -6 -2 -15 4 -19 7 -4 9 -3 6 3 -4 6 2 18 13 28 11 10
20 13 20 7 0 -6 -5 -14 -10 -17 -6 -4 -9 -14 -8 -23 2 -11 -3 -16 -12 -14 -12
3 -12 0 2 -15 8 -10 14 -26 13 -35 -2 -10 1 -20 6 -24 5 -3 6 -11 2 -17 -3 -7
3 -4 15 7 20 17 22 18 28 1 4 -9 8 -26 9 -38 1 -12 4 -23 5 -24 9 -10 4 -51
-9 -68 -16 -20 -16 -20 6 -1 13 10 20 22 18 27 -3 4 -1 10 4 13 18 12 19 -23
1 -39 -11 -10 -19 -20 -18 -24 0 -3 -1 -8 -2 -11 -6 -16 -7 -41 -2 -35 4 4 8
11 8 16 1 5 3 11 4 14 3 5 6 19 9 33 1 4 5 0 10 -7 6 -9 6 -22 1 -31 -6 -12
-5 -17 5 -17 7 0 11 7 7 15 -3 10 -1 13 7 8 16 -10 9 -50 -13 -74 -13 -15 -14
-22 -5 -28 7 -4 10 -3 6 3 -4 6 2 18 13 28 11 10 20 13 20 7 0 -6 -5 -14 -10
-17 -6 -4 -8 -10 -5 -15 3 -5 1 -12 -5 -15 -7 -4 -8 -11 -1 -18 16 -20 16 -23
1 -43 -14 -17 -14 -18 2 -6 16 13 18 28 5 49 -4 6 -4 14 1 17 4 2 13 -3 19
-13 9 -14 8 -25 -3 -46 -12 -23 -12 -26 0 -16 11 10 14 7 15 -16 1 -54 2 -63
12 -68 5 -4 6 -12 2 -18 -4 -7 -8 -20 -8 -29 0 -10 -4 -17 -10 -15 -5 1 -9 6
-7 10 1 5 -2 5 -8 2 -8 -5 -6 -12 4 -24 13 -14 13 -20 3 -31 -10 -12 -9 -12 5
-1 10 7 16 17 13 21 -3 5 -1 11 4 14 20 13 20 -13 0 -40 l-21 -29 26 28 c27
30 36 16 11 -17 -12 -16 -12 -22 -2 -34 13 -16 12 -18 -6 -42 -11 -13 -10 -13
7 0 18 14 19 13 13 -3 -4 -10 -7 -21 -7 -23 0 -3 -6 -2 -12 2 -10 6 -10 4 -2
-7 6 -8 10 -25 7 -39 -3 -24 -3 -24 11 -5 7 11 12 30 10 43 -3 15 -1 21 6 17
13 -8 13 -52 -1 -61 -6 -3 -8 -18 -5 -33 6 -23 5 -24 -7 -8 -16 19 -34 24 -20
5 14 -20 17 -72 3 -63 -6 4 -9 10 -6 13 3 3 1 11 -5 19 -6 7 -8 13 -4 13 4 0
2 6 -4 14 -7 8 -8 17 -3 20 10 6 9 63 -1 73 -4 3 -5 -11 -3 -31 2 -20 0 -39
-6 -42 -5 -3 -4 -11 3 -20 6 -8 8 -14 4 -14 -4 0 -2 -7 5 -15 7 -8 9 -15 5
-15 -4 0 -3 -6 2 -12 5 -7 8 -32 7 -55 -2 -61 -3 -65 -12 -59 -5 3 -8 28 -7
56 1 28 -2 53 -7 56 -5 3 -5 10 -2 16 4 7 2 8 -5 4 -6 -4 -8 -13 -4 -19 4 -7
8 -33 8 -58 0 -25 5 -52 11 -60 11 -15 11 -25 -1 -52 -4 -10 -5 -21 -1 -24 3
-4 6 1 6 10 0 9 5 19 12 23 8 5 9 2 5 -9 -9 -24 14 -33 30 -12 8 12 13 14 13
6 0 -17 43 36 48 58 2 9 4 25 5 36 2 11 6 25 10 32 4 6 3 14 -2 17 -6 4 -4 17
4 33 12 24 12 29 0 43 -20 23 -19 44 5 65 14 13 17 22 10 30 -7 9 -6 16 5 25
16 13 11 35 -6 24 -5 -3 -6 -10 -3 -16 5 -7 2 -8 -6 -3 -10 6 -12 2 -8 -18 3
-14 1 -32 -4 -39 -7 -10 -8 -10 -7 2 3 31 -1 61 -9 57 -4 -3 -6 -31 -6 -64 1
-32 -1 -50 -5 -39 -4 11 -6 70 -5 133 1 62 -1 115 -5 118 -5 2 -7 26 -6 52 2
44 2 45 -5 13 -6 -27 -7 -22 -5 25 2 43 1 53 -6 35 -6 -18 -7 -12 -4 25 3 34
1 44 -4 30 -7 -16 -9 -12 -7 17 1 20 5 40 9 45 5 4 5 -1 1 -11 -5 -13 -4 -17
3 -13 6 4 11 1 10 -6 0 -6 1 -21 2 -32 1 -16 3 -17 11 -5 5 9 5 19 -2 27 -6 7
-7 13 -4 13 4 0 1 10 -6 23 -24 44 -29 97 -11 119 10 11 11 18 3 23 -5 3 -7
12 -4 18 4 7 4 9 -1 5 -4 -4 -14 -3 -21 2 -6 6 -18 9 -25 8 -8 -2 -14 7 -15
22 -1 14 -4 34 -7 45 -2 11 0 25 5 32 5 7 5 14 -2 18 -6 3 -7 12 -3 18 4 8 1
7 -9 -1 -21 -17 -27 -6 -23 41 3 27 1 36 -8 30 -9 -5 -8 -2 1 9 10 12 10 18
-2 27 -8 7 -13 21 -11 33 3 16 0 19 -15 15 -11 -3 -23 -1 -26 4 -12 20 -23 7
-18 -23z m36 7 c2 3 5 -1 6 -7 4 -39 11 -68 18 -80 12 -19 13 -37 3 -44 -5 -3
-9 -10 -9 -15 0 -6 4 -8 9 -5 19 12 44 -48 42 -100 0 -12 6 -27 14 -34 8 -7
15 -9 15 -5 0 5 9 0 20 -10 11 -10 20 -23 20 -28 0 -6 -7 -2 -15 9 -15 18 -15
18 -10 -6 3 -14 7 -38 10 -55 4 -16 7 -37 9 -45 2 -8 1 -19 -3 -25 -8 -13 -10
-68 -4 -79 3 -5 8 -36 10 -70 2 -33 10 -70 17 -81 9 -14 13 -54 12 -130 -2
-61 2 -123 7 -140 12 -38 32 -61 22 -25 -4 14 -4 22 0 18 11 -11 15 -59 4 -52
-5 3 -9 -15 -9 -43 1 -26 -3 -61 -8 -78 -9 -30 -9 -30 -17 18 -4 26 -5 73 -2
105 3 31 3 49 0 39 -2 -9 -8 -15 -12 -13 -3 2 -5 -28 -3 -67 2 -45 0 -67 -6
-59 -5 7 -8 31 -7 52 1 22 -1 37 -5 35 -4 -2 -6 -24 -5 -47 2 -24 0 -47 -3
-53 -10 -16 -11 -35 -2 -40 5 -3 7 3 5 15 -2 11 0 22 6 25 10 7 12 -35 3 -59
-3 -9 -10 -16 -16 -16 -5 0 -6 5 -3 10 4 6 2 16 -3 23 -5 7 -7 21 -5 32 3 11
6 38 7 60 2 22 6 48 11 58 4 9 5 24 1 32 -3 8 0 14 7 12 7 -1 11 8 9 25 -1 14
2 29 8 33 16 10 12 45 -11 76 -11 16 -17 29 -13 29 5 0 3 5 -4 12 -8 8 -7 18
5 39 16 27 16 29 -2 49 -22 25 -27 47 -13 57 7 4 9 -1 6 -15 -4 -13 -2 -20 6
-19 6 1 10 -4 8 -11 -1 -8 2 -11 8 -7 8 5 8 11 0 20 -6 7 -12 34 -15 60 -2 26
-6 50 -9 53 -3 3 0 12 7 21 11 14 10 14 -5 2 -10 -7 -16 -17 -13 -20 10 -17
15 -72 6 -67 -5 4 -10 14 -10 24 -3 77 -10 113 -24 135 -12 18 -13 27 -4 36 8
8 8 14 0 22 -6 6 -9 18 -6 25 3 7 -5 25 -16 40 -15 19 -18 31 -11 39 5 6 7 14
4 17 -2 3 -7 18 -10 34 -4 20 -2 26 5 19 6 -6 12 -19 14 -30 2 -11 8 -29 14
-40 6 -11 13 -36 16 -55 2 -19 6 -39 7 -45 2 -5 0 -18 -5 -28 -4 -10 -5 -21
-1 -24 3 -4 6 1 6 11 0 9 5 14 10 11 7 -4 6 -13 -1 -27 -7 -12 -7 -18 -1 -14
6 3 12 0 15 -6 2 -7 3 4 3 24 -1 21 -5 40 -8 44 -4 3 -5 27 -3 53 3 40 3 42
-5 16 -9 -27 -9 -27 -5 10 3 24 1 35 -4 27 -6 -11 -10 -10 -16 5 -11 26 -16
44 -17 72 0 17 -3 20 -9 10 -6 -9 -7 1 -4 26 3 29 2 35 -4 20 l-10 -20 -1 20
-1 20 -9 -20 c-4 -11 -4 -24 1 -29 13 -14 11 -29 -2 -20 -8 5 -8 1 0 -14 8
-15 8 -23 -1 -28 -6 -4 -8 -3 -4 4 3 6 1 14 -5 17 -5 4 -8 13 -5 20 2 7 -1 23
-8 37 -7 14 -9 32 -5 43 8 21 13 7 10 -25 -2 -13 0 -13 8 -1 5 8 6 22 2 30 -5
9 -7 24 -6 34 2 10 -1 14 -7 11 -6 -4 -8 -3 -5 2 3 6 2 16 -4 24 -7 13 -9 13
-9 0 0 -12 -2 -12 -9 -2 -7 11 -9 11 -14 -2 -4 -9 -2 -15 2 -13 5 1 9 -1 10
-5 4 -27 -1 -30 -15 -10 -12 18 -13 26 -4 37 16 20 3 40 -16 24 -13 -11 -13
-9 -3 15 l13 28 9 -24 c8 -22 9 -22 23 -4 11 16 11 23 1 35 -10 14 -10 14 4 4
9 -7 18 -11 21 -8z m-28 -127 c4 12 11 20 16 17 11 -7 -23 -71 -36 -67 -5 1
-9 10 -9 20 0 9 -3 22 -7 28 -4 6 -4 14 -1 18 4 4 12 -3 19 -15 l12 -22 6 21z
m183 -1035 c-3 -10 -5 -2 -5 17 0 19 2 27 5 18 2 -10 2 -26 0 -35z"/>
<path d="M29152 8679 c-8 -12 -11 -24 -8 -27 3 -3 6 1 6 9 0 8 8 1 19 -16 10
-16 17 -38 15 -48 -2 -10 1 -15 6 -12 10 6 8 23 -8 51 -6 12 -9 24 -6 27 3 3
2 12 -3 21 -7 13 -10 13 -21 -5z"/>
<path d="M29221 8400 c0 -8 4 -22 9 -30 12 -18 12 -2 0 25 -6 13 -9 15 -9 5z"/>
<path d="M29280 8311 c0 -6 4 -13 10 -16 6 -3 7 1 4 9 -7 18 -14 21 -14 7z"/>
<path d="M29270 8201 c0 -6 4 -13 10 -16 6 -3 7 1 4 9 -7 18 -14 21 -14 7z"/>
<path d="M29322 7990 c0 -19 2 -27 5 -17 2 9 2 25 0 35 -3 9 -5 1 -5 -18z"/>
<path d="M29302 7931 c1 -18 5 -34 9 -37 8 -4 0 58 -7 65 -3 3 -3 -10 -2 -28z"/>
<path d="M29341 7663 c-1 -37 1 -65 4 -61 8 8 10 116 3 123 -3 3 -6 -25 -7
-62z"/>
<path d="M28738 8713 c7 -3 16 -2 19 1 4 3 -2 6 -13 5 -11 0 -14 -3 -6 -6z"/>
<path d="M28938 8713 c6 -2 18 -2 25 0 6 3 1 5 -13 5 -14 0 -19 -2 -12 -5z"/>
<path d="M29043 8695 c0 -8 4 -12 9 -9 5 3 6 10 3 15 -9 13 -12 11 -12 -6z"/>
<path d="M29139 8518 c-6 -20 -6 -39 0 -42 4 -3 7 6 7 20 0 20 -4 32 -7 22z"/>
<path d="M29116 8470 c5 -8 9 -18 9 -22 0 -3 3 -9 7 -13 3 -4 5 0 4 9 -1 9 -8
22 -16 29 -10 10 -11 9 -4 -3z"/>
<path d="M29136 8408 c3 -5 10 -6 15 -3 13 9 11 12 -6 12 -8 0 -12 -4 -9 -9z"/>
<path d="M29191 8297 c-13 -21 -12 -21 5 -5 10 10 16 20 13 22 -3 3 -11 -5
-18 -17z"/>
<path d="M29355 8206 c-10 -15 -22 -23 -29 -19 -6 4 -4 -1 4 -11 9 -11 15 -43
16 -81 1 -34 4 -68 8 -74 4 -6 5 -42 1 -79 -4 -37 -3 -64 0 -60 4 4 8 23 9 42
3 35 12 58 14 34 0 -7 3 -23 6 -36 3 -13 1 -20 -5 -17 -5 4 -9 -2 -9 -11 0
-16 1 -16 20 1 15 13 17 22 9 36 -5 11 -7 19 -3 19 4 0 0 8 -9 18 -13 14 -14
21 -5 30 9 9 8 16 -5 30 -22 24 -21 35 3 57 19 17 18 41 -1 29 -5 -3 -7 -9 -4
-14 3 -5 1 -11 -4 -14 -5 -4 -8 2 -6 11 1 10 -1 25 -6 34 -6 11 -2 22 11 34
19 17 18 41 -1 29 -5 -3 -7 -9 -4 -14 3 -5 1 -11 -4 -14 -13 -9 -7 19 8 38 8
9 11 19 8 22 -3 3 -13 -6 -22 -20z"/>
<path d="M29193 8205 c0 -8 4 -12 9 -9 5 3 6 10 3 15 -9 13 -12 11 -12 -6z"/>
<path d="M29223 8124 c9 -11 15 -23 12 -26 -3 -3 3 -11 12 -19 16 -12 17 -12
7 1 -6 8 -10 23 -8 33 1 11 0 16 -3 13 -4 -3 -13 0 -22 6 -12 10 -12 7 2 -8z"/>
<path d="M29225 8070 c10 -11 20 -20 23 -20 3 0 -3 9 -13 20 -10 11 -20 20
-23 20 -3 0 3 -9 13 -20z"/>
<path d="M29396 8061 c-4 -5 -2 -12 3 -15 5 -4 12 -2 15 3 4 5 2 12 -3 15 -5
4 -12 2 -15 -3z"/>
<path d="M29223 7995 c0 -8 4 -12 9 -9 5 3 6 10 3 15 -9 13 -12 11 -12 -6z"/>
<path d="M29253 7922 c2 -12 6 -24 10 -28 3 -4 4 4 2 16 -6 30 -16 40 -12 12z"/>
<path d="M29230 7896 c0 -2 8 -10 18 -17 15 -13 16 -12 3 4 -13 16 -21 21 -21
13z"/>
<path d="M29234 7565 c0 -13 3 -22 7 -19 8 4 6 30 -2 38 -3 3 -5 -5 -5 -19z"/>
<path d="M29225 7520 c-4 -6 -10 -8 -15 -5 -5 3 -11 1 -15 -5 -10 -16 21 -12
35 5 7 8 10 15 7 15 -3 0 -9 -5 -12 -10z"/>
<path d="M28578 7493 c7 -3 16 -2 19 1 4 3 -2 6 -13 5 -11 0 -14 -3 -6 -6z"/>
<path d="M29088 7493 c7 -3 16 -2 19 1 4 3 -2 6 -13 5 -11 0 -14 -3 -6 -6z"/>
</g>
</svg>
