<?xml version="1.0" standalone="no"?>
<!DOCTYPE svg PUBLIC "-//W3C//DTD SVG 20010904//EN"
 "http://www.w3.org/TR/2001/REC-SVG-20010904/DTD/svg10.dtd">
<svg version="1.0" xmlns="http://www.w3.org/2000/svg"
 width="1080.000000pt" height="608.000000pt" viewBox="0 0 1080.000000 608.000000"
 preserveAspectRatio="xMidYMid meet">

<g transform="translate(0.000000,608.000000) scale(0.100000,-0.100000)"
fill="#000000" stroke="none">
<path d="M1564 3997 c-3 -4 7 -12 23 -18 41 -15 83 -58 104 -106 16 -38 112
-451 138 -597 17 -95 14 -147 -14 -202 l-25 -49 44 -38 c55 -46 65 -74 110
-322 32 -174 106 -605 106 -619 0 -3 11 -6 25 -6 17 0 26 7 30 23 3 12 19 81
36 152 34 147 116 555 150 750 12 72 25 133 29 138 4 4 17 -50 29 -120 37
-205 117 -604 157 -780 35 -153 39 -163 60 -163 28 0 21 -27 79 315 92 539
106 594 168 637 18 12 34 23 36 24 2 2 -7 24 -20 50 -35 73 -30 150 30 424 88
406 99 434 186 482 28 15 46 28 40 28 -5 0 -96 2 -202 6 -187 5 -230 -1 -178
-24 13 -6 28 -24 31 -39 5 -17 -11 -140 -39 -318 -26 -159 -63 -393 -83 -520
-20 -126 -38 -237 -41 -245 -3 -8 -51 156 -108 365 -134 492 -123 455 -144
455 -15 0 -34 -61 -126 -397 -59 -219 -111 -407 -115 -418 -5 -14 -10 -1 -18
45 -10 57 -109 679 -147 923 -15 95 -10 128 25 149 11 7 20 16 20 20 0 10
-390 5 -396 -5z"/>
<path d="M3223 3797 c-38 -27 -52 -31 -128 -35 -47 -2 -85 -6 -85 -8 0 -2 16
-24 35 -49 52 -68 58 -105 59 -335 1 -221 -5 -255 -51 -311 l-26 -30 26 -27
c53 -57 59 -82 58 -251 -2 -277 -18 -359 -81 -416 -11 -10 -20 -21 -20 -26 0
-4 38 -9 84 -10 75 -4 89 -7 128 -35 l43 -30 43 30 c42 30 48 31 167 34 l122
4 7 45 c9 68 7 203 -3 203 -5 0 -16 -11 -25 -25 -23 -35 -126 -110 -210 -152
-37 -19 -70 -33 -72 -31 -2 2 -7 154 -10 337 l-7 333 44 -7 c24 -4 69 -13 100
-21 31 -8 62 -14 68 -14 7 0 11 31 11 90 0 50 -2 90 -4 90 -2 0 -19 -6 -37
-14 -19 -8 -67 -23 -108 -35 l-74 -20 6 320 c3 176 8 323 12 327 11 11 115
-51 152 -91 19 -22 39 -52 45 -68 5 -16 13 -29 18 -29 4 0 18 44 30 98 12 53
25 103 27 110 4 9 -17 12 -84 12 -101 0 -146 11 -184 46 -14 13 -27 24 -30 23
-2 0 -23 -15 -46 -32z"/>
<path d="M3899 3807 c-15 -14 -57 -30 -107 -42 -45 -10 -82 -21 -82 -25 0 -4
9 -15 21 -26 47 -42 62 -92 71 -239 18 -257 5 -365 -50 -428 -15 -16 -14 -20
11 -42 51 -48 54 -108 26 -458 -10 -127 -28 -179 -74 -215 -14 -11 -25 -23
-25 -26 0 -3 26 -6 59 -6 67 0 113 -13 157 -46 l31 -23 31 31 c24 25 43 33 94
40 162 22 274 136 347 353 16 50 35 131 41 180 15 127 18 135 51 166 l29 27
-24 37 c-27 39 -30 54 -45 247 -21 254 -95 391 -246 454 -22 9 -84 20 -139 25
-64 5 -105 14 -116 24 -22 20 -30 19 -61 -8z m199 -71 c71 -37 131 -147 165
-303 17 -82 21 -131 20 -308 0 -352 -56 -590 -168 -714 -31 -34 -109 -80 -119
-70 -7 7 -20 1375 -13 1393 8 20 77 22 115 2z"/>
<path d="M5781 3804 c-39 -32 -80 -44 -158 -44 -35 0 -63 -2 -63 -5 0 -3 16
-25 35 -50 51 -68 58 -105 59 -335 1 -204 1 -205 -26 -260 -15 -30 -33 -63
-40 -72 -10 -14 -7 -22 20 -49 17 -18 37 -48 43 -68 15 -45 5 -440 -12 -491
-7 -19 -27 -54 -45 -77 -19 -23 -34 -44 -34 -46 0 -3 38 -7 84 -8 75 -4 89 -7
128 -35 l43 -30 43 30 c42 30 48 31 166 34 l123 4 7 115 c3 63 3 119 0 125 -3
5 -26 -11 -50 -36 -24 -25 -67 -61 -96 -80 -66 -41 -159 -89 -164 -83 -2 2 -7
154 -11 337 l-6 332 44 -7 c24 -3 70 -13 102 -21 32 -8 63 -14 68 -14 5 0 9
41 9 91 0 83 -2 90 -17 84 -35 -15 -158 -53 -181 -57 l-23 -3 0 200 c1 110 4
255 7 323 7 118 8 122 28 116 50 -14 132 -80 161 -131 17 -29 33 -52 36 -53 3
0 17 48 30 108 l25 107 -101 6 c-108 6 -139 15 -169 48 -24 27 -28 26 -65 -5z"/>
<path d="M7061 3805 c-19 -14 -69 -32 -110 -41 -42 -9 -78 -18 -80 -20 -3 -3
7 -17 22 -32 56 -59 67 -103 74 -320 7 -220 0 -273 -44 -331 l-26 -34 25 -21
c43 -35 51 -82 43 -240 -16 -327 -28 -386 -90 -434 -14 -11 -25 -23 -25 -26 0
-3 26 -6 59 -6 67 0 113 -13 157 -46 l31 -23 31 31 c24 25 43 33 94 40 120 16
209 80 283 203 46 77 91 218 105 331 17 131 18 135 51 165 l31 29 -20 27 c-30
43 -40 88 -47 213 -15 269 -87 421 -232 487 -40 19 -82 27 -154 33 -69 6 -106
13 -118 24 -22 20 -19 20 -60 -9z m197 -69 c173 -90 245 -569 152 -1012 -32
-154 -74 -250 -139 -315 -47 -46 -104 -80 -116 -67 -7 7 -17 1319 -11 1362 7
46 7 46 47 46 22 0 52 -6 67 -14z"/>
<path d="M7986 3728 c-58 -274 -308 -1213 -343 -1286 -14 -29 -43 -72 -64 -94
-21 -23 -39 -43 -39 -45 0 -1 83 -3 185 -3 102 0 185 2 185 5 0 3 -18 21 -40
41 -68 61 -70 89 -21 290 l42 171 145 -1 144 -1 16 -50 c37 -113 128 -335 165
-405 73 -135 221 -320 256 -320 19 0 17 11 -23 97 -80 173 -214 545 -214 592
0 14 9 46 20 70 l20 44 -40 34 c-22 20 -49 52 -60 73 -28 55 -231 679 -270
828 -8 30 -16 42 -29 42 -14 0 -21 -16 -35 -82z m134 -739 c18 -56 34 -108 37
-116 4 -10 -19 -13 -121 -13 -69 0 -126 3 -126 8 0 9 100 452 107 472 3 8 20
-45 38 -117 19 -73 48 -178 65 -234z"/>
<path d="M6490 3784 c-214 -41 -323 -183 -280 -365 17 -72 39 -114 101 -190
61 -77 76 -105 85 -156 5 -36 9 -40 49 -51 34 -9 50 -21 73 -54 104 -152 135
-301 92 -440 -62 -200 -241 -189 -307 19 -28 88 -38 61 -38 -103 0 -128 2
-148 15 -145 8 2 76 4 150 5 126 1 138 3 186 28 112 59 164 159 171 328 4 87
1 118 -18 180 -12 41 -23 101 -24 133 -3 56 -4 58 -44 80 -25 14 -79 67 -142
142 -175 207 -201 260 -180 377 12 70 31 102 81 136 67 45 155 17 190 -61 13
-28 20 -65 20 -109 0 -37 4 -69 9 -73 6 -3 24 41 41 97 17 57 38 123 45 147 8
24 13 47 10 51 -4 6 -39 10 -205 24 -30 2 -66 2 -80 0z"/>
<path d="M4505 3750 c3 -5 16 -10 28 -10 47 0 121 -67 146 -131 5 -14 13 -109
16 -210 8 -206 0 -274 -41 -335 l-25 -37 24 -21 c43 -36 47 -56 47 -228 0
-286 -25 -398 -97 -443 -18 -11 -32 -23 -33 -27 0 -5 86 -8 190 -8 105 0 190
2 190 4 0 3 -13 18 -29 34 -16 16 -34 46 -41 68 -23 75 -37 870 -16 891 2 2 9
-17 15 -42 25 -101 116 -379 173 -530 106 -281 296 -685 323 -685 9 0 11 104
7 439 -3 241 -2 451 2 466 4 15 21 40 38 56 29 26 30 30 16 46 -9 10 -24 34
-34 53 -17 32 -19 58 -18 277 2 234 3 244 25 290 16 31 35 52 56 63 18 8 33
18 33 23 0 4 -83 7 -185 7 -102 0 -185 -2 -185 -5 0 -2 13 -11 30 -20 60 -31
59 -27 62 -559 2 -267 0 -486 -3 -486 -7 0 -109 311 -153 468 -19 68 -56 214
-82 325 -25 111 -51 219 -56 240 l-9 37 -210 0 c-138 0 -208 -3 -204 -10z"/>
<path d="M8270 3751 c0 -5 9 -12 19 -16 69 -21 103 -85 137 -248 13 -67 36
-165 50 -217 21 -76 25 -108 20 -160 l-6 -65 53 -25 c95 -46 117 -106 124
-356 6 -189 -6 -251 -62 -313 -19 -21 -35 -41 -35 -45 0 -3 86 -6 190 -6 105
0 190 4 190 9 0 5 -7 14 -16 21 -66 56 -91 193 -74 405 5 71 15 147 21 168 14
50 64 105 115 127 l41 18 -4 69 c-4 55 1 95 30 213 20 80 43 179 51 220 19 90
42 131 95 167 22 16 40 31 41 36 0 4 -81 7 -180 7 -99 0 -180 -3 -180 -7 0 -5
16 -28 35 -52 45 -56 49 -85 31 -209 -20 -132 -63 -259 -134 -395 -64 -125
-55 -126 -126 12 -58 114 -94 215 -117 334 -31 159 -23 222 37 278 13 12 24
26 24 31 0 4 -83 8 -185 8 -108 0 -185 -4 -185 -9z"/>
</g>
</svg>
